<?xml version="1.0" encoding="iso-8859-1"?>
<svg version="1.1" id="Layer_1" xmlns="http://www.w3.org/2000/svg" xmlns:xlink="http://www.w3.org/1999/xlink" x="0px" y="0px"
	 viewBox="-50 -50 450 450" xml:space="preserve">
<g id="XMLID_340_">
	<path id="XMLID_341_" d="M315,159.868c-8.284,0-15,6.716-15,15v21.722L201.006,89.677c-2.77-2.993-6.641-4.728-10.718-4.806
		c-4.08-0.092-8.011,1.506-10.894,4.391l-38.983,38.983L26.002,4.804C20.369-1.273,10.879-1.632,4.803,3.999
		C-1.272,9.63-1.633,19.121,3.999,25.197l125,134.868c2.772,2.99,6.641,4.723,10.717,4.8c4.083,0.079,8.009-1.508,10.891-4.391
		l38.978-38.977l91.084,98.371H255c-8.284,0-15,6.716-15,15c0,8.284,6.716,15,15,15h60c0,0,0.001,0,0.002,0c0,0,0.001,0,0.001,0
		c0.483,0,0.967-0.027,1.449-0.073c0.182-0.018,0.357-0.05,0.537-0.074c0.295-0.039,0.59-0.078,0.883-0.135
		c0.21-0.041,0.415-0.095,0.623-0.145c0.257-0.061,0.514-0.122,0.769-0.197c0.211-0.063,0.416-0.136,0.623-0.207
		c0.245-0.084,0.489-0.169,0.73-0.267c0.203-0.082,0.4-0.172,0.599-0.263c0.236-0.107,0.47-0.217,0.701-0.337
		c0.195-0.102,0.386-0.21,0.576-0.321c0.221-0.127,0.439-0.258,0.655-0.397c0.194-0.126,0.382-0.258,0.569-0.392
		c0.197-0.142,0.393-0.286,0.586-0.438c0.194-0.153,0.381-0.314,0.566-0.476c0.106-0.093,0.219-0.175,0.323-0.271
		c0.067-0.063,0.125-0.132,0.19-0.195c0.196-0.188,0.382-0.383,0.568-0.581c0.159-0.17,0.318-0.339,0.468-0.515
		c0.16-0.188,0.31-0.382,0.46-0.578c0.153-0.198,0.306-0.395,0.448-0.598c0.132-0.19,0.252-0.387,0.375-0.583
		c0.136-0.217,0.274-0.433,0.398-0.656c0.115-0.206,0.217-0.418,0.322-0.629c0.11-0.221,0.222-0.439,0.32-0.664
		c0.101-0.231,0.188-0.468,0.277-0.705c0.081-0.215,0.165-0.428,0.236-0.646c0.081-0.247,0.147-0.501,0.216-0.755
		c0.058-0.217,0.119-0.434,0.168-0.654c0.055-0.247,0.096-0.5,0.138-0.751c0.039-0.238,0.08-0.474,0.109-0.713
		c0.027-0.234,0.044-0.47,0.061-0.708c0.019-0.266,0.035-0.531,0.04-0.797c0.002-0.093,0.014-0.184,0.014-0.277v-60
		C330,166.584,323.284,159.868,315,159.868z"/>
	<path id="XMLID_348_" d="M315,300H15c-8.284,0-15,6.716-15,15s6.716,15,15,15h300c8.284,0,15-6.716,15-15S323.284,300,315,300z"/>
</g>
<g>
</g>
<g>
</g>
<g>
</g>
<g>
</g>
<g>
</g>
<g>
</g>
<g>
</g>
<g>
</g>
<g>
</g>
<g>
</g>
<g>
</g>
<g>
</g>
<g>
</g>
<g>
</g>
<g>
</g>
</svg>
