<?xml version="1.0" encoding="UTF-8"?>
<svg width="18px" height="18px" viewBox="0 0 18 18" version="1.1" xmlns="http://www.w3.org/2000/svg" xmlns:xlink="http://www.w3.org/1999/xlink">
    <!-- Generator: Sketch 44.1 (41455) - http://www.bohemiancoding.com/sketch -->
    <title>slice</title>
    <desc>Created with Sketch.</desc>
    <defs></defs>
    <g id="Page-1" stroke="none" stroke-width="1">
        <g id="Artboard" transform="translate(-29.000000, -29.000000)" fill-rule="nonzero">
            <g id="noun_Settings_2434659" transform="translate(30.000000, 30.000000)">
                <g id="Group">
                    <path d="M15.1333333,6.36666667 L14.1166667,6.08333333 L13.6833333,5.01666667 L14.2,4.1 C14.4333333,3.68333333 14.3666667,3.16666667 14.0333333,2.83333333 L13.1666667,1.96666667 C12.8333333,1.63333333 12.3,1.56666667 11.9,1.8 L10.9833333,2.31666667 L9.91666667,1.88333333 L9.63333333,0.866666667 C9.5,0.416666667 9.08333333,0.0833333333 8.61666667,0.0833333333 L7.4,0.0833333333 C6.93333333,0.0833333333 6.5,0.4 6.38333333,0.866666667 L6.1,1.88333333 L5.03333333,2.31666667 L4.11666667,1.8 C3.7,1.56666667 3.18333333,1.63333333 2.85,1.96666667 L1.96666667,2.83333333 C1.63333333,3.16666667 1.56666667,3.7 1.8,4.1 L2.31666667,5.01666667 L1.88333333,6.08333333 L0.866666667,6.36666667 C0.416666667,6.5 0.0833333333,6.91666667 0.0833333333,7.38333333 L0.0833333333,8.6 C0.0833333333,9.08333333 0.4,9.5 0.866666667,9.61666667 L1.88333333,9.9 L2.31666667,10.9666667 L1.8,11.8833333 C1.56666667,12.3 1.63333333,12.8166667 1.96666667,13.15 L2.83333333,14.0166667 C3.16666667,14.35 3.7,14.4166667 4.1,14.1833333 L5.01666667,13.6666667 L6.08333333,14.1 L6.36666667,15.1166667 C6.5,15.5666667 6.91666667,15.9 7.38333333,15.9 L8.6,15.9 C9.06666667,15.9 9.5,15.5833333 9.61666667,15.1166667 L9.9,14.1 L10.9666667,13.6666667 L11.8833333,14.1833333 C12.3,14.4166667 12.8166667,14.35 13.15,14.0166667 L14.0166667,13.15 C14.35,12.8166667 14.4166667,12.3 14.1833333,11.8833333 L13.6666667,10.9666667 L14.1,9.9 L15.1166667,9.61666667 C15.5666667,9.48333333 15.9,9.06666667 15.9,8.6 L15.9,7.38333333 C15.9166667,6.91666667 15.6,6.5 15.1333333,6.36666667 Z M15.0166667,8.61666667 C15.0166667,8.68333333 14.9666667,8.76666667 14.9,8.78333333 L13.4666667,9.16666667 L12.7,11.0333333 L13.4333333,12.3333333 C13.4666667,12.4 13.4666667,12.4833333 13.4,12.5333333 L12.5333333,13.4 C12.4833333,13.45 12.4,13.4666667 12.3333333,13.4333333 L11.0333333,12.7 L9.16666667,13.4666667 L8.76666667,14.9 C8.75,14.9666667 8.68333333,15.0166667 8.6,15.0166667 L7.38333333,15.0166667 C7.31666667,15.0166667 7.25,14.9666667 7.21666667,14.9 L6.83333333,13.4666667 L4.96666667,12.7 L3.66666667,13.4333333 C3.6,13.4666667 3.51666667,13.4666667 3.46666667,13.4 L2.6,12.5333333 C2.55,12.4833333 2.53333333,12.4 2.56666667,12.3333333 L3.3,11.0333333 L2.53333333,9.16666667 L1.1,8.76666667 C1.03333333,8.75 0.983333333,8.68333333 0.983333333,8.6 L0.983333333,7.38333333 C0.983333333,7.3 1.03333333,7.25 1.1,7.21666667 L2.53333333,6.81666667 L3.3,4.95 L2.56666667,3.66666667 C2.53333333,3.6 2.53333333,3.51666667 2.6,3.46666667 L3.46666667,2.6 C3.51666667,2.55 3.6,2.53333333 3.66666667,2.56666667 L4.96666667,3.3 L6.83333333,2.53333333 L7.23333333,1.1 C7.25,1.03333333 7.31666667,0.983333333 7.4,0.983333333 L8.61666667,0.983333333 C8.68333333,0.983333333 8.75,1.03333333 8.78333333,1.1 L9.18333333,2.53333333 L11.05,3.31666667 L12.35,2.58333333 C12.4166667,2.55 12.5,2.55 12.55,2.61666667 L13.4166667,3.48333333 C13.4666667,3.53333333 13.4833333,3.61666667 13.45,3.68333333 L12.7166667,4.98333333 L13.4666667,6.83333333 L14.9,7.23333333 C14.9666667,7.25 15.0166667,7.31666667 15.0166667,7.4 L15.0166667,8.61666667 Z" id="Shape"></path>
                    <path d="M8,5 C6.35,5 5,6.35 5,8 C5,9.65 6.35,11 8,11 C9.65,11 11,9.65 11,8 C11,6.35 9.65,5 8,5 Z M8,10.1 C6.83333333,10.1 5.9,9.15 5.9,8 C5.9,6.83333333 6.85,5.9 8,5.9 C9.15,5.9 10.1,6.83333333 10.1,8 C10.1,9.16666667 9.16666667,10.1 8,10.1 Z" id="Shape"></path>
                </g>
            </g>
        </g>
    </g>
</svg>