<?xml version="1.0" encoding="utf-8"?>
<!-- Generator: Adobe Illustrator 24.1.2, SVG Export Plug-In . SVG Version: 6.00 Build 0)  -->
<svg version="1.1" id="图层_1" xmlns="http://www.w3.org/2000/svg" xmlns:xlink="http://www.w3.org/1999/xlink" x="0px" y="0px"
	 viewBox="0 0 15 14" style="enable-background:new 0 0 15 14;" xml:space="preserve">
<style type="text/css">
	.st0{fill:#FFFFFF;}
</style>
<g>
	<path class="st0" d="M13.6,0H1.4C0.6,0,0,0.6,0,1.4v8.2C0,10.4,0.6,11,1.4,11h1v2c0,0.4,0.2,0.8,0.5,1c0.1,0,0.3,0,0.4,0
		c0.3,0,0.5-0.1,0.7-0.3l3-2.5c0.2-0.2,0.5-0.3,0.8-0.3h5.8c0.8,0,1.4-0.6,1.4-1.4V1.4C15,0.6,14.4,0,13.6,0z M13.6,9.5H7.8
		c-0.6,0-1.2,0.2-1.6,0.6l-2.4,2v-1.3c0-0.8-0.6-1.4-1.4-1.4h-1v-8h12.3v8.1H13.6z"/>
	<path class="st0" d="M4.1,4.8h6.8c0.4,0,0.7-0.3,0.7-0.7c0-0.4-0.3-0.7-0.7-0.7H4.1c-0.4,0-0.7,0.3-0.7,0.7
		C3.4,4.5,3.7,4.8,4.1,4.8z"/>
	<path class="st0" d="M4.1,7.5h4.8c0.4,0,0.7-0.3,0.7-0.7c0-0.4-0.3-0.7-0.7-0.7H4.1c-0.4,0-0.7,0.3-0.7,0.7
		C3.4,7.2,3.7,7.5,4.1,7.5z"/>
</g>
</svg>
