<?xml version="1.0" encoding="utf-8"?>
<!-- Generator: Adobe Illustrator 24.1.2, SVG Export Plug-In . SVG Version: 6.00 Build 0)  -->
<svg version="1.1" id="图层_1" xmlns="http://www.w3.org/2000/svg" xmlns:xlink="http://www.w3.org/1999/xlink" x="0px" y="0px"
	 viewBox="0 0 14.3 14" style="enable-background:new 0 0 14.3 14;" xml:space="preserve">
<style type="text/css">
	.st0{fill:#FFFFFF;}
</style>
<g>
	<path class="st0" d="M10.9,2c-0.1,0-0.2,0-0.3,0C9.8,0.8,8.4,0,6.9,0C5.1,0,3.5,1.2,2.8,2.9C1.3,2.9,0,4.2,0,5.8s1.3,2.9,2.9,2.9
		h2.7V7.6H2.9c-1,0-1.8-0.8-1.8-1.8S1.9,4,2.9,4C3,4,3,4,3.2,4c0.3,0,0.6-0.2,0.6-0.4c0.4-1.5,1.7-2.5,3.1-2.5c1,0,1.9,0.5,2.5,1.2
		C8.9,2.6,8.4,3.1,8,3.7C7.9,3.9,8,4.3,8.2,4.4C8.5,4.6,8.8,4.5,9,4.3c0.4-0.7,1.1-1.1,1.9-1.1c1.2,0,2.2,1,2.2,2.2s-1,2.2-2.2,2.2
		H8.7v1.1h2.2c1.8,0,3.3-1.5,3.3-3.3C14.3,3.5,12.8,2,10.9,2z"/>
	<path class="st0" d="M9.2,10.6l-1.5,1.5V6.2c0-0.3-0.3-0.6-0.6-0.6c-0.3,0-0.6,0.3-0.6,0.6v5.9L5,10.6c-0.2-0.2-0.6-0.2-0.8,0
		c-0.2,0.2-0.2,0.6,0,0.8l2.4,2.4C6.8,13.9,7,14,7.1,14c0.2,0,0.3-0.1,0.4-0.2l2.4-2.4c0.2-0.2,0.2-0.6,0-0.8S9.4,10.4,9.2,10.6z"/>
</g>
</svg>
