<?xml version="1.0" encoding="utf-8"?>
<!-- Generator: Adobe Illustrator 24.1.2, SVG Export Plug-In . SVG Version: 6.00 Build 0)  -->
<svg version="1.1" id="图层_1" xmlns="http://www.w3.org/2000/svg" xmlns:xlink="http://www.w3.org/1999/xlink" x="0px" y="0px"
	 viewBox="0 0 14 14" style="enable-background:new 0 0 14 14;" xml:space="preserve">
<style type="text/css">
	.st0{fill:#FFFFFF;}
</style>
<g>
	<path class="st0" d="M3.1,8h1c0.3,0,0.5,0.2,0.5,0.5l0,0C4.7,8.8,4.4,9,4.1,9h-1C2.8,9,2.6,8.8,2.6,8.5l0,0C2.6,8.2,2.8,8,3.1,8z"
		/>
	<path class="st0" d="M3.1,10.3h4.1c0.3,0,0.5,0.2,0.5,0.5l0,0c0,0.3-0.2,0.5-0.5,0.5H3.1c-0.3,0-0.5-0.2-0.5-0.5l0,0
		C2.6,10.5,2.8,10.3,3.1,10.3z"/>
	<path class="st0" d="M11.8,14H1.6C0.7,14,0,13.3,0,12.4V2.2c0-0.9,0.7-1.6,1.6-1.6h5.6c0.3,0,0.5,0.2,0.5,0.5l0,0
		c0,0.3-0.2,0.5-0.5,0.5H1.6C1.3,1.6,1,1.8,1,2.2l0,0v10.2C1,12.7,1.3,13,1.6,13h10.2c0.3,0,0.6-0.3,0.6-0.6V6.7
		c0-0.3,0.2-0.5,0.5-0.5l0,0c0.3,0,0.5,0.2,0.5,0.5v5.6C13.5,13.3,12.7,14,11.8,14L11.8,14z"/>
	<path class="st0" d="M7.6,8.1H5.9V6.4c0-0.3,0.1-0.6,0.4-0.9l5.2-5.2c0.4-0.5,1.2-0.5,1.6,0l0,0l0.6,0.6c0.4,0.4,0.4,1.2,0,1.6l0,0
		L8.4,7.8C8.2,8,7.9,8.1,7.6,8.1z M6.9,7.1h0.7c0,0,0.1,0,0.1-0.1l5.2-5.2c0,0,0-0.1,0-0.2L12.3,1c0,0-0.1,0-0.2,0L7,6.3L6.9,6.4
		V7.1z"/>
</g>
</svg>
