<?xml version="1.0" encoding="utf-8"?>
<!-- Generator: Adobe Illustrator 19.0.0, SVG Export Plug-In . SVG Version: 6.00 Build 0)  -->
<svg version="1.1" id="图层_1" xmlns="http://www.w3.org/2000/svg" xmlns:xlink="http://www.w3.org/1999/xlink" x="0px" y="0px"
	 viewBox="-17 19 14 14" style="enable-background:new -17 19 14 14;" xml:space="preserve">
<style type="text/css">
	.st0{fill:#027DB4;}
	.st1{fill:#FFFFFF;}
</style>
<circle class="st0" cx="-10" cy="26" r="7"/>
<title>Menu 3</title>
<desc>Created with Sketch.</desc>
<path class="st1" d="M-7.8,26.5h-4.5c-0.3,0-0.5-0.2-0.5-0.5l0,0c0-0.3,0.2-0.5,0.5-0.5h4.5c0.3,0,0.5,0.2,0.5,0.5l0,0
	C-7.2,26.3-7.6,26.5-7.8,26.5z"/>
<path class="st1" d="M-7.8,28.6h-4.5c-0.3,0-0.5-0.2-0.5-0.5l0,0c0-0.3,0.2-0.5,0.5-0.5h4.5c0.3,0,0.5,0.2,0.5,0.5l0,0
	C-7.2,28.4-7.6,28.6-7.8,28.6z"/>
<path class="st1" d="M-7.8,24.4h-4.5c-0.3,0-0.5-0.2-0.5-0.5l0,0c0-0.3,0.2-0.5,0.5-0.5h4.5c0.3,0,0.5,0.2,0.5,0.5l0,0
	C-7.2,24.2-7.6,24.4-7.8,24.4z"/>
</svg>
