<?xml version="1.0" encoding="utf-8"?>
<svg version="1.1" xmlns:xlink="http://www.w3.org/1999/xlink" width="14px" height="14px" xmlns="http://www.w3.org/2000/svg">
  <g>
    <path d="M 13.8715769230769 8.62265384615385  C 13.0859615384615 11.7231153846154  10.3007692307692 13.8885384615385  7.09880769230769 13.8885384615385  C 3.24584615384615 13.8885384615385  0.111461538461538 10.7538846153846  0.111461538461538 6.90119230769231  C 0.111461538461538 3.6995  2.27661538461538 0.914307692307692  5.37707692307692 0.128153846153845  C 5.56015384615384 0.0813076923076912  5.75561538461538 0.135153846153845  5.88996153846154 0.269230769230768  C 6.02403846153846 0.403576923076922  6.07788461538461 0.598499999999999  6.03103846153846 0.782384615384614  C 5.91096153846154 1.25703846153846  5.84984615384615 1.74730769230769  5.84984615384615 2.23973076923077  C 5.84984615384615 5.49876923076923  8.50123076923077 8.15015384615385  11.7602692307692 8.15015384615385  C 12.2529615384615 8.15015384615385  12.7432307692308 8.08903846153846  13.2173461538462 7.96869230769231  C 13.4017692307692 7.92184615384615  13.5961538461538 7.97542307692308  13.7305 8.1095  C 13.8645769230769 8.24384615384615  13.9184230769231 8.43876923076923  13.8715769230769 8.62265384615385  Z M 4.77346153846154 2.23973076923077  C 4.77319230769231 1.97426923076923  4.788 1.70907692307692  4.81815384615385 1.44603846153846  C 2.64438461538462 2.352  1.18865384615385 4.48646153846154  1.18865384615385 6.90119230769231  C 1.18865384615385 10.1602307692308  3.84003846153846 12.8116153846154  7.09907692307692 12.8116153846154  C 9.51407692307692 12.8116153846154  11.6482692307692 11.3558846153846  12.5542307692308 9.18238461538461  C 12.2911923076923 9.212  12.0262692307692 9.22707692307692  11.7608076923077 9.22707692307692  C 7.90784615384615 9.22707692307692  4.77346153846154 6.09242307692307  4.77346153846154 2.23973076923077  Z " fill-rule="nonzero" fill="#ffffff" stroke="none" />
  </g>
</svg>