<?xml version="1.0" encoding="utf-8"?>
<svg version="1.1" xmlns:xlink="http://www.w3.org/1999/xlink" width="11px" height="14px" xmlns="http://www.w3.org/2000/svg">
  <g>
    <path d="M 5.5 7.45652173913044  C 8.537566125 7.45652173913044  11 9.90922267391304  11 12.9347826086957  C 11 13.4364613782609  10.5915256638889 13.8478260869565  10.0855374888889 13.8478260869565  L 0.914462511111111 13.8478260869565  C 0.410751305555555 13.8478260869565  0 13.4379716434783  0 12.9347826086957  C 0 9.90922267391304  2.462433875 7.45652173913044  5.5 7.45652173913044  Z M 9.76703319166667 12.6304347826087  C 9.61036068055556 10.4192639478261  7.75981344722222 8.67391304347826  5.5 8.67391304347826  C 3.24018655277778 8.67391304347826  1.38963931944444 10.4192639478261  1.23296680833333 12.6304347826087  L 9.76703319166667 12.6304347826087  Z M 8.86111111111111 3.5  C 8.86111111111111 5.34895327826087  7.35629039444444 6.84782608695652  5.5 6.84782608695652  C 3.64370960555556 6.84782608695652  2.13888888888889 5.34895327826087  2.13888888888889 3.5  C 2.13888888888889 1.65104672173913  3.64370960555556 0.152173913043478  5.5 0.152173913043478  C 7.35629039444444 0.152173913043478  8.86111111111111 1.65104672173913  8.86111111111111 3.5  Z M 3.36111111111111 3.5  C 3.36111111111111 4.67660662608696  4.3187243 5.6304347826087  5.5 5.6304347826087  C 6.6812757 5.6304347826087  7.63888888888889 4.67660662608696  7.63888888888889 3.5  C 7.63888888888889 2.32339337391304  6.6812757 1.3695652173913  5.5 1.3695652173913  C 4.3187243 1.3695652173913  3.36111111111111 2.32339337391304  3.36111111111111 3.5  Z " fill-rule="nonzero" fill="#ffffff" stroke="none" />
  </g>
</svg>