<?xml version="1.0" encoding="UTF-8"?>
<svg viewBox="10 9 26 29" version="1.1" xmlns="http://www.w3.org/2000/svg" xmlns:xlink="http://www.w3.org/1999/xlink">
    <g id="Page-1" stroke="none" stroke-width="1">
        <g id="Artboard" transform="translate(-29.000000, -29.000000)">
            <g id="select-model---selected" transform="translate(30.000000, 30.000000)">
                <circle fill="none" id="Oval-5" stroke-width="2" cx="22" cy="22" r="21"></circle>
                <path d="M34,15.8733252 L22.1680672,9 L10.1680672,15.5773447 L10,29.0280146 L21.8991597,36 L33.8991597,29.4226553 L34,15.8733252 Z M32.3193277,28.5347138 L22.7731092,33.7637028 L22.7731092,22.911084 L32.4201681,17.6163216 L32.3193277,28.5347138 Z M11.7142857,17.3861145 L21.2268908,22.911084 L21.2268908,33.862363 L11.5798319,28.2058465 L11.7142857,17.3861145 Z M31.6470588,16.3008526 L22,21.5956151 L12.5210084,16.0706456 L22.1344538,10.7758831 L31.6470588,16.3008526 Z M13.8991597,26.0353228 L14.6722689,27.3836784 L13.2605042,28.1400731 L12.487395,26.7917174 L13.8991597,26.0353228 Z M16.7226891,24.4896468 L17.4957983,25.8380024 L16.0840336,26.5943971 L15.3109244,25.2460414 L16.7226891,24.4896468 Z M20.2857143,24.2923264 L18.8739496,25.0487211 L18.1008403,23.7003654 L19.512605,22.9439708 L20.2857143,24.2923264 Z M23.6470588,24.3252132 L24.4537815,23.0097442 L25.8319328,23.7990256 L25.0252101,25.1144945 L23.6470588,24.3252132 Z M30.605042,28.3373934 L29.2268908,27.5481121 L30.0336134,26.2326431 L31.4117647,27.0219245 L30.605042,28.3373934 Z M27.8151261,26.725944 L26.4369748,25.9366626 L27.2436975,24.6211937 L28.6218487,25.410475 L27.8151261,26.725944 Z M22.907563,13.8343484 L21.3277311,13.8014616 L21.3613445,12.2228989 L22.9411765,12.2557856 L22.907563,13.8343484 Z M21.2605042,20.1157125 L21.2941176,18.5371498 L22.8739496,18.5700365 L22.8403361,20.1485993 L21.2605042,20.1157125 Z M22.8403361,16.9914738 L21.2605042,16.9585871 L21.2941176,15.3800244 L22.8739496,15.4129111 L22.8403361,16.9914738 Z" id="Shape" fill-rule="nonzero"></path>
            </g>
        </g>
    </g>
</svg>