<?xml version="1.0" encoding="utf-8"?>
<!-- Generator: Adobe Illustrator 24.1.2, SVG Export Plug-In . SVG Version: 6.00 Build 0)  -->
<svg version="1.1" id="图层_1" xmlns="http://www.w3.org/2000/svg" xmlns:xlink="http://www.w3.org/1999/xlink" x="0px" y="0px"
	 viewBox="0 0 15.1 14" style="enable-background:new 0 0 15.1 14;" xml:space="preserve">
<style type="text/css">
	.st0{fill:#FFFFFF;}
</style>
<g>
	<g>
		<g>
			<path class="st0" d="M2.4,9.2c-0.2,0-0.5,0-0.7,0s-0.5,0-0.7,0h0.1H1c0,0,0.1,0,0.1,0.1c0,0,0,0-0.1,0s0.1,0.1,0,0s0,0.1,0,0
				c0,0,0,0,0-0.1c0,0,0,0.1,0.1,0.1V9.2v0.1c0-0.1,0-0.3,0-0.4c0-0.3,0-0.6,0-0.9c0-0.7,0-1.3,0-2c0-0.2,0-0.3,0-0.5v0.1V5.5
				c0,0,0,0.1-0.1,0.1c0,0,0,0,0-0.1s-0.1,0.1,0,0s-0.1,0,0,0c0,0,0,0,0.1,0c0,0-0.1,0-0.1,0.1h0.1H1c0.2,0,0.5,0,0.7,0s0.5,0,0.7,0
				H2.3h0.1c0,0-0.1,0-0.1-0.1c0,0,0,0,0.1,0s-0.1-0.1,0,0s0-0.1,0,0c0,0,0,0,0,0.1c0,0,0-0.1-0.1-0.1v0.1V5.5c0,0.1,0,0.3,0,0.4
				c0,0.3,0,0.6,0,0.9c0,0.7,0,1.3,0,2c0,0.2,0,0.3,0,0.5C2.3,9.3,2.3,9.2,2.4,9.2c-0.1,0-0.1,0.1-0.1,0.1C2.3,9.3,2.3,9.2,2.4,9.2
				C2.3,9.2,2.3,9.2,2.4,9.2C2.2,9.3,2.4,9.1,2.4,9.2C2.2,9.3,2.4,9.2,2.4,9.2C2.3,9.2,2.3,9.2,2.4,9.2C2.3,9.2,2.3,9.2,2.4,9.2
				C2.3,9.2,2.3,9.2,2.4,9.2C2.3,9.2,2.4,9.2,2.4,9.2L2.4,9.2c-0.3,0-0.5,0.2-0.5,0.5s0.2,0.5,0.5,0.5c0.5,0,1-0.4,1-1
				c0-0.1,0-0.2,0-0.4c0-0.5,0-1,0-1.6c0-0.5,0-1,0-1.5c0-0.1,0-0.2,0-0.3c0-0.5-0.4-1-1-1c-0.4,0-0.9,0-1.3,0c-0.6,0-1,0.4-1,1
				c0,0.1,0,0.2,0,0.3c0,1,0,2,0,3C0,9,0,9.1,0,9.2c0,0.5,0.3,0.9,0.8,1c0.2,0,0.4,0,0.7,0s0.5,0,0.8,0c0,0,0.1,0,0.2,0
				C2.8,10.2,3,10,3,9.7C2.9,9.4,2.7,9.2,2.4,9.2z"/>
		</g>
	</g>
	<g>
		<g>
			<path class="st0" d="M14.1,9.2c-0.2,0-0.5,0-0.7,0s-0.5,0-0.7,0h0.1h-0.1c0,0,0.1,0,0.1,0.1c0,0,0,0-0.1,0s0.1,0.1,0,0s0,0.1,0,0
				c0,0,0,0,0-0.1c0,0,0,0.1,0.1,0.1V9.2v0.1c0-0.1,0-0.3,0-0.4c0-0.3,0-0.6,0-0.9c0-0.7,0-1.3,0-2c0-0.2,0-0.3,0-0.5v0.1V5.5
				c0,0,0,0.1-0.1,0.1c0,0,0,0,0-0.1s-0.1,0.1,0,0s-0.1,0,0,0c0,0,0,0,0.1,0c0,0-0.1,0-0.1,0.1h0.1h-0.1c0.2,0,0.5,0,0.7,0
				s0.5,0,0.7,0H14h0.1c0,0-0.1,0-0.1-0.1c0,0,0,0,0.1,0s-0.1-0.1,0,0s0-0.1,0,0c0,0,0,0,0,0.1c0,0,0-0.1-0.1-0.1v0.1V5.5
				c0,0.1,0,0.3,0,0.4c0,0.3,0,0.6,0,0.9c0,0.7,0,1.3,0,2c0,0.2,0,0.3,0,0.5C14,9.3,14,9.2,14.1,9.2C14,9.2,14,9.3,14,9.3
				S14,9.2,14.1,9.2C14.1,9.2,14,9.2,14.1,9.2C14,9.3,14.1,9.1,14.1,9.2C14,9.3,14.1,9.2,14.1,9.2c-0.1,0-0.1,0-0.1,0
				C14.1,9.2,14.1,9.2,14.1,9.2L14.1,9.2L14.1,9.2C14.2,9.2,14.1,9.2,14.1,9.2c-0.3,0-0.5,0.2-0.5,0.5s0.2,0.5,0.5,0.5
				c0.5,0,1-0.4,1-1c0-0.1,0-0.2,0-0.4c0-0.5,0-1,0-1.5s0-1,0-1.5c0-0.1,0-0.2,0-0.3c0-0.5-0.4-1-1-1c-0.4,0-0.9,0-1.3,0
				c-0.6,0-1,0.4-1,1c0,0.1,0,0.2,0,0.3c0,1,0,2,0,3c0,0.1,0,0.3,0,0.4c0,0.4,0.3,0.9,0.7,1c0.2,0,0.4,0,0.7,0s0.5,0,0.8,0
				c0,0,0.1,0,0.2,0c0.3,0,0.5-0.2,0.5-0.5C14.6,9.4,14.4,9.2,14.1,9.2z"/>
		</g>
	</g>
	<g>
		<g>
			<path class="st0" d="M7.9,12.9c-0.1,0-0.3,0-0.4,0c-0.2,0-0.3,0-0.5,0h0.1c-0.1,0-0.2,0-0.2-0.1c0,0,0.1,0,0.1,0.1
				c0,0-0.1,0-0.1-0.1c-0.1-0.1,0.1,0.1,0,0c0,0,0,0-0.1-0.1c0,0,0,0-0.1-0.1s0.1,0.1,0,0c0-0.1-0.1-0.1-0.1-0.2c0,0,0,0.1,0.1,0.1
				c0-0.1,0-0.2-0.1-0.2v0.1c0-0.1,0-0.2,0-0.2v0.1c0-0.1,0-0.2,0.1-0.2c0,0,0,0.1-0.1,0.1c0,0,0-0.1,0.1-0.1c0.1-0.1-0.1,0.1,0,0
				c0,0,0,0,0.1-0.1c0,0,0,0,0.1-0.1s-0.1,0.1,0,0c0.1,0,0.1-0.1,0.2-0.1c0,0-0.1,0-0.1,0.1c0.1,0,0.2,0,0.2-0.1H7.1
				c0.2,0,0.3,0,0.5,0s0.3,0,0.5,0H8c0.1,0,0.2,0,0.2,0.1c0,0-0.1,0-0.1-0.1c0,0,0.1,0,0.1,0.1c0.1,0.1-0.1-0.1,0,0c0,0,0,0,0.1,0.1
				c0,0,0,0,0.1,0.1s-0.1-0.1,0,0c0,0.1,0.1,0.1,0.1,0.2c0,0,0-0.1-0.1-0.1c0,0.1,0,0.2,0.1,0.2v-0.1c0,0.1,0,0.2,0,0.2v-0.1
				c0,0.1,0,0.2-0.1,0.2c0,0,0-0.1,0.1-0.1c0,0,0,0.1-0.1,0.1c-0.1,0.1,0.1-0.1,0,0c0,0,0,0-0.1,0.1c0,0,0,0-0.1,0.1s0.1-0.1,0,0
				C8.1,12.9,8.1,12.9,7.9,12.9c0.1,0,0.2,0,0.2-0.1C8.1,12.9,8,12.9,7.9,12.9L7.9,12.9C8,12.9,8,12.9,7.9,12.9
				c-0.3,0-0.5,0.2-0.5,0.5s0.2,0.5,0.5,0.5c0.5,0,0.9-0.2,1.2-0.6c0.2-0.3,0.3-0.8,0.2-1.2s-0.4-0.8-0.8-1C8.2,11,8,11,7.7,11
				c-0.2,0-0.4,0-0.6,0c-0.4,0-0.8,0.2-1.1,0.4c-0.3,0.3-0.5,0.8-0.4,1.3c0.1,0.4,0.3,0.8,0.7,1c0.5,0.3,1,0.2,1.5,0.2
				c0.3,0,0.5-0.2,0.5-0.5C8.5,13.2,8.2,12.9,7.9,12.9z"/>
		</g>
	</g>
	<g>
		<g>
			<path class="st0" d="M8.9,13.1c0.7,0,1.4,0,2.2,0c0.2,0,0.4,0,0.6-0.1c0.4-0.1,0.8-0.4,1-0.8c0.1-0.3,0.2-0.5,0.2-0.8
				c0-0.1,0-0.1,0-0.2c0-0.7,0-1.5,0-2.2c0-0.9,0-1.8,0-2.7c0-0.7,0-1.4-0.1-2c-0.3-1.4-1.2-2.6-2.4-3.4C9.1,0,7.5-0.2,6.1,0.2
				C4.8,0.6,3.6,1.5,2.9,2.8C2.5,3.4,2.3,4.1,2.3,4.9c0,0.3,0,0.6,0,0.9c0,0.8,0,1.7,0,2.5c0,0.1,0,0.1,0,0.2C2.3,8.8,2.5,9,2.8,9
				s0.5-0.2,0.5-0.5c0-0.4,0-0.8,0-1.3c0-0.6,0-1.2,0-1.8c0-0.3,0-0.5,0-0.8v0.1C3.4,4.4,3.5,4,3.7,3.6c0,0,0,0.1-0.1,0.1
				C3.7,3.5,3.8,3.3,4,3.1C4,3,4.1,2.9,4.2,2.8c0,0,0,0,0-0.1l0,0c0,0-0.1,0.1,0,0.1l0.1-0.1c0.2-0.2,0.3-0.3,0.5-0.5l0.1-0.1
				c0,0,0,0,0.1-0.1c0.1-0.1-0.1,0.1,0,0c0.1-0.1,0.2-0.1,0.3-0.2C5.5,1.6,5.7,1.5,6,1.4c0,0-0.1,0-0.1,0.1c0.4-0.2,0.8-0.3,1.2-0.3
				H7c0.4-0.1,0.8-0.1,1.2,0H8.1c0.4,0.1,0.8,0.2,1.2,0.3c0,0-0.1,0-0.1-0.1c0.2,0.1,0.4,0.2,0.6,0.3c0,0.1,0.1,0.1,0.2,0.2
				c0,0,0,0,0.1,0l0,0c0,0-0.1-0.1-0.1,0L10.1,2c0.2,0.2,0.3,0.3,0.5,0.5l0.1,0.1c0,0,0,0,0.1,0.1s-0.1-0.1,0,0
				C11,2.8,11,2.9,11.1,3c0.1,0.2,0.3,0.5,0.4,0.7c0,0,0-0.1-0.1-0.1c0.2,0.4,0.3,0.8,0.3,1.2V4.7c0,0.3,0,0.7,0,1c0,0.5,0,1,0,1.4
				c0,0.6,0,1.2,0,1.9c0,0.5,0,1.1,0,1.6c0,0.3,0,0.5,0,0.8c0,0.1,0,0.1,0,0.2v-0.1c0,0.1,0,0.2-0.1,0.3c0,0,0-0.1,0.1-0.1
				c0,0.1-0.1,0.1-0.1,0.2l0,0c0,0.1,0.1-0.1,0,0c0,0,0,0.1-0.1,0.1c0,0,0,0-0.1,0.1s0.1-0.1,0,0l0,0c-0.1,0-0.1,0.1-0.2,0.1
				c0,0,0.1,0,0.1-0.1c-0.1,0-0.2,0.1-0.3,0.1h0.1c-0.3,0-0.6,0-0.9,0c-0.4,0-0.8,0-1.3,0c-0.1,0-0.2,0-0.3,0
				c-0.3,0-0.5,0.2-0.5,0.5C8.3,12.8,8.6,13.1,8.9,13.1L8.9,13.1z"/>
		</g>
	</g>
</g>
</svg>
