<?xml version="1.0" encoding="utf-8"?>
<!-- Generator: Adobe Illustrator 24.1.2, SVG Export Plug-In . SVG Version: 6.00 Build 0)  -->
<svg version="1.1" id="图层_1" xmlns="http://www.w3.org/2000/svg" xmlns:xlink="http://www.w3.org/1999/xlink" x="0px" y="0px"
	 viewBox="0 0 14 14" style="enable-background:new 0 0 14 14;" xml:space="preserve">
<style type="text/css">
	.st0{fill:#FFFFFF;}
</style>
<g>
	<g>
		<circle class="st0" cx="7" cy="4.2" r="1"/>
		<path class="st0" d="M7.8,6.8V10c0,0.4-0.4,0.8-0.8,0.8S6.2,10.4,6.2,10V6.8C6.2,6.4,6.5,6,7,6C7.4,6,7.8,6.4,7.8,6.8z"/>
		<path class="st0" d="M7,0C3.1,0,0,3.1,0,7s3.1,7,7,7s7-3.1,7-7S10.9,0,7,0z M11.1,11.1c-2.2,2.3-5.9,2.3-8.1,0.1S0.6,5.3,2.8,3
			c0,0,0,0,0.1-0.1C5.1,0.6,8.8,0.6,11,2.8S13.4,8.7,11.1,11.1C11.1,11,11.1,11,11.1,11.1z"/>
		<path class="st0" d="M7,0C3.1,0,0,3.1,0,7s3.1,7,7,7s7-3.1,7-7S10.9,0,7,0z M11.1,11.1c-2.2,2.3-5.9,2.3-8.1,0.1S0.6,5.3,2.8,3
			c0,0,0,0,0.1-0.1C5.1,0.6,8.8,0.6,11,2.8S13.4,8.7,11.1,11.1C11.1,11,11.1,11,11.1,11.1z"/>
	</g>
</g>
</svg>
