<?xml version="1.0" encoding="utf-8"?>
<!-- Generator: Adobe Illustrator 19.0.0, SVG Export Plug-In . SVG Version: 6.00 Build 0)  -->
<svg version="1.1" id="图层_1" xmlns="http://www.w3.org/2000/svg" xmlns:xlink="http://www.w3.org/1999/xlink" x="0px" y="0px"
	 viewBox="68 18.5 14 14" style="enable-background:new 68 18.5 14 14;" xml:space="preserve">
<style type="text/css">
	.st0{fill:#A4AFB9;}
</style>
<path class="st0" d="M75,18.5c-3.8,0-7,3.2-7,7s3.2,7,7,7s7-3.2,7-7S78.8,18.5,75,18.5z M75,31.4c-3.3,0-5.9-2.7-5.9-5.9
	s2.7-5.9,5.9-5.9s5.9,2.7,5.9,5.9S78.3,31.4,75,31.4z"/>
<title>Menu 3</title>
<desc>Created with Sketch.</desc>
<path class="st0" d="M77.3,26h-4.5c-0.3,0-0.5-0.2-0.5-0.5l0,0c0-0.3,0.2-0.5,0.5-0.5h4.5c0.3,0,0.5,0.2,0.5,0.5l0,0
	C77.8,25.8,77.5,26,77.3,26z"/>
<path class="st0" d="M77.3,28.1h-4.5c-0.3,0-0.5-0.2-0.5-0.5v0c0-0.3,0.2-0.5,0.5-0.5h4.5c0.3,0,0.5,0.2,0.5,0.5v0
	C77.8,27.9,77.5,28.1,77.3,28.1z"/>
<path class="st0" d="M77.3,23.9h-4.5c-0.3,0-0.5-0.2-0.5-0.5v0c0-0.3,0.2-0.5,0.5-0.5h4.5c0.3,0,0.5,0.2,0.5,0.5v0
	C77.8,23.7,77.5,23.9,77.3,23.9z"/>
</svg>
