<?xml version="1.0" encoding="utf-8"?>
<!-- Generator: Adobe Illustrator 19.0.0, SVG Export Plug-In . SVG Version: 6.00 Build 0)  -->
<svg version="1.1" id="图层_1" xmlns="http://www.w3.org/2000/svg" xmlns:xlink="http://www.w3.org/1999/xlink" x="0px" y="0px"
	 viewBox="-9 11 30 30" style="enable-background:new -9 11 30 30;" xml:space="preserve">
<style type="text/css">
	.st0{fill:#027DB4;}
	.st1{fill:#FFFFFF;}
</style>
<circle class="st0" cx="6" cy="26" r="15"/>
<path class="st1" d="M11.3,36.5h-3H3.7h-3c-1.2,0-2.4-0.8-2.1-2.9l1-3.7c0.3-1,0.6-1.7,2.1-1.7h1.7h5.2h1.7c1.5,0,1.8,0.7,2.1,1.7
	l1,3.7C13.7,35.8,12.5,36.5,11.3,36.5z"/>
<path class="st0" d="M11.3,35.9H0.7c-0.8,0-1.4-0.6-1.4-1.4v0c0-0.8,0.6-1.4,1.4-1.4h10.5c0.8,0,1.4,0.6,1.4,1.4v0
	C12.6,35.3,12,35.9,11.3,35.9z"/>
<path class="st1" d="M9.4,35c-0.2,0-0.5-0.2-0.5-0.5S9.1,34,9.4,34s0.5,0.2,0.5,0.5S9.8,35,9.4,35z"/>
<path class="st1" d="M11.1,35c-0.2,0-0.5-0.2-0.5-0.5s0.2-0.5,0.5-0.5s0.5,0.2,0.5,0.5S11.4,35,11.1,35z"/>
<path class="st1" d="M0.5,20.6c0-0.5,0.4-0.9,0.9-0.9h3.7V16c0-0.5,0.4-0.9,0.9-0.9l0,0c0.5,0,0.9,0.4,0.9,0.9v3.7h3.7
	c0.5,0,0.9,0.4,0.9,0.9l0,0c0,0.5-0.4,0.9-0.9,0.9H6.9v3.7c0,0.5-0.4,0.9-0.9,0.9l0,0c-0.5,0-0.9-0.4-0.9-0.9v-3.7H1.4
	C0.9,21.6,0.5,21.1,0.5,20.6L0.5,20.6z"/>
</svg>
