<?xml version="1.0" encoding="utf-8"?>
<!-- Generator: Adobe Illustrator 19.0.0, SVG Export Plug-In . SVG Version: 6.00 Build 0)  -->
<svg version="1.1" id="图层_1" xmlns="http://www.w3.org/2000/svg" xmlns:xlink="http://www.w3.org/1999/xlink" x="0px" y="0px"
	 viewBox="-9 11 30 30" style="enable-background:new -9 11 30 30;" xml:space="preserve">
<style type="text/css">
	.st0{fill:#027DB4;}
	.st1{fill:#FFFFFF;}
</style>
<circle class="st0" cx="6" cy="26" r="15"/>
<path class="st1" d="M11.4,36.5h-3H3.8h-3c-1.2,0-2.4-0.8-2.1-2.9l1-3.7c0.3-1,0.6-1.7,2.1-1.7h1.7h5.2h1.7c1.5,0,1.8,0.7,2.1,1.7
	l1,3.7C13.8,35.8,12.6,36.5,11.4,36.5z"/>
<path class="st1" d="M9,18.6c-0.3,0.3-0.8,0.3-1.2,0l-0.9-0.9v7.8c0,0.5-0.3,0.8-0.8,0.8c-0.5,0-0.8-0.3-0.8-0.8v-7.8l-0.9,0.9
	c-0.3,0.3-0.8,0.3-1.2,0s-0.3-0.8,0-1.2l2.3-2.2C5.6,15.1,5.9,15,6.1,15s0.5,0.1,0.7,0.3l2.3,2.2C9.3,17.6,9.3,18.2,9,18.6z"/>
<path class="st0" d="M11.4,35.9H0.8c-0.8,0-1.4-0.6-1.4-1.4l0,0c0-0.8,0.6-1.4,1.4-1.4h10.5c0.8,0,1.4,0.6,1.4,1.4l0,0
	C12.7,35.3,12.1,35.9,11.4,35.9z"/>
<path class="st1" d="M9.5,35C9.2,35,9,34.8,9,34.5S9.1,34,9.5,34c0.3,0,0.5,0.2,0.5,0.5S9.9,35,9.5,35z"/>
<path class="st1" d="M11.2,35c-0.2,0-0.5-0.2-0.5-0.5s0.2-0.5,0.5-0.5c0.3,0,0.5,0.2,0.5,0.5S11.5,35,11.2,35z"/>
</svg>
