<?xml version="1.0" encoding="utf-8"?>
<!-- Generator: Adobe Illustrator 19.0.0, SVG Export Plug-In . SVG Version: 6.00 Build 0)  -->
<svg version="1.1" id="图层_1" xmlns="http://www.w3.org/2000/svg" xmlns:xlink="http://www.w3.org/1999/xlink" x="0px" y="0px"
	 viewBox="-9 11 30 30" style="enable-background:new -9 11 30 30;" xml:space="preserve">
<style type="text/css">
	.st0{fill:#A4AFB9;}
</style>
<g>
	<path class="st0" d="M6,11c-8.3,0-15,6.7-15,15c0,8.3,6.7,15,15,15s15-6.7,15-15C21,17.7,14.3,11,6,11z M3.2,17.4l2.3-2.2
		C5.6,15.1,5.9,15,6.1,15c0.2,0,0.5,0.1,0.7,0.3l2.3,2.2c0.2,0.1,0.2,0.7-0.1,1.1c-0.3,0.3-0.8,0.3-1.2,0l-0.9-0.9v7.8
		c0,0.5-0.3,0.8-0.8,0.8S5.3,26,5.3,25.5v-7.8l-0.9,0.9c-0.3,0.3-0.8,0.3-1.2,0C2.8,18.3,2.9,17.8,3.2,17.4z M11.3,36.5h-3H3.8h-3
		c-1.2,0-2.4-0.8-2.1-2.9l1-3.7c0.3-1,0.6-1.7,2.1-1.7h1.7h5.2h1.7c1.5,0,1.8,0.7,2.1,1.7l1,3.7C13.8,35.8,12.5,36.5,11.3,36.5z"/>
	<path class="st0" d="M11.2,33.1H0.8c-0.8,0-1.4,0.6-1.4,1.4s0.6,1.4,1.4,1.4h10.6c0.7,0,1.3-0.6,1.3-1.4S12,33.1,11.2,33.1z
		 M9.5,35C9.2,35,9,34.8,9,34.5S9.2,34,9.5,34s0.5,0.2,0.5,0.5S9.8,35,9.5,35z M11.2,35c-0.2,0-0.5-0.2-0.5-0.5s0.2-0.5,0.5-0.5
		c0.3,0,0.5,0.2,0.5,0.5S11.5,35,11.2,35z"/>
</g>
</svg>
