<?xml version="1.0" encoding="utf-8"?>
<!-- Generator: Adobe Illustrator 19.0.0, SVG Export Plug-In . SVG Version: 6.00 Build 0)  -->
<svg version="1.1" id="图层_1" xmlns="http://www.w3.org/2000/svg" xmlns:xlink="http://www.w3.org/1999/xlink" x="0px" y="0px"
	 viewBox="-9 11 30 30" style="enable-background:new -9 11 30 30;" xml:space="preserve">
<style type="text/css">
	.st0{fill:#027DB4;}
	.st1{fill:#FFFFFF;}
</style>
<title>_</title>
<circle class="st0" cx="6" cy="26" r="15"/>
<g>
	<path class="st1" d="M5.5,31.1c-0.8,0.3-1.2,1.1-0.9,1.9c0.3,0.8,1.1,1.2,1.9,0.9s1.2-1.1,0.9-1.9c-0.2-0.4-0.5-0.8-0.9-0.9V29H9
		c1.2,0,2.3,0.9,2.5,2.1c-0.8,0.3-1.2,1.2-0.9,1.9c0.3,0.8,1.2,1.2,1.9,0.9c0.8-0.3,1.2-1.2,0.9-1.9c-0.2-0.4-0.5-0.8-0.9-0.9
		C12.2,29.3,10.8,28,9,28H6.5v-3h2c1.1,0,2-0.9,2-2v-3c0-1.1-0.9-2-2-2h-5c-1.1,0-2,0.9-2,2v3c0,1.1,0.9,2,2,2h2v3H3
		c-1.8,0-3.2,1.3-3.5,3.1c-0.8,0.3-1.2,1.1-1,1.9s1.1,1.2,1.9,1c0.8-0.3,1.2-1.1,1-1.9c-0.1-0.4-0.5-0.8-0.9-0.9
		C0.7,29.9,1.8,29,3,29h2.5V31.1z M6.5,32.5C6.5,32.8,6.3,33,6,33s-0.5-0.2-0.5-0.5S5.7,32,6,32C6.3,32,6.5,32.2,6.5,32.5z
		 M12.5,32.5c0,0.3-0.2,0.5-0.5,0.5s-0.5-0.2-0.5-0.5S11.7,32,12,32C12.3,32,12.5,32.2,12.5,32.5z M3.5,24c-0.6,0-1-0.4-1-1v-3
		c0-0.6,0.4-1,1-1h5c0.6,0,1,0.4,1,1v3c0,0.6-0.4,1-1,1H3.5z M0.5,32.5C0.5,32.8,0.3,33,0,33s-0.5-0.2-0.5-0.5S-0.3,32,0,32
		C0.3,32,0.5,32.2,0.5,32.5z"/>
</g>
</svg>
