<?xml version="1.0" encoding="utf-8"?>
<!-- Generator: Adobe Illustrator 19.0.0, SVG Export Plug-In . SVG Version: 6.00 Build 0)  -->
<svg version="1.1" id="图层_1" xmlns="http://www.w3.org/2000/svg" xmlns:xlink="http://www.w3.org/1999/xlink" x="0px" y="0px"
	 viewBox="-9 11 30 30" style="enable-background:new -9 11 30 30;" xml:space="preserve">
<style type="text/css">
	.st0{fill:#A4AFB9;}
</style>
<title>_</title>
<g>
	<circle class="st0" cx="6" cy="32.5" r="0.5"/>
	<path class="st0" d="M6,11c-8.3,0-15,6.7-15,15c0,8.3,6.7,15,15,15c8.3,0,15-6.7,15-15C21,17.7,14.3,11,6,11z M12.5,33.9
		c-0.8,0.3-1.6-0.1-1.9-0.9s0.1-1.6,0.9-1.9C11.3,29.9,10.2,29,9,29H6.5v2.1c0.4,0.2,0.8,0.5,0.9,0.9c0.3,0.8-0.1,1.6-0.9,1.9
		c-0.8,0.3-1.6-0.1-1.9-0.9c-0.3-0.8,0.1-1.6,0.9-1.9V29H3c-1.2,0-2.3,0.9-2.5,2.1C1,31.3,1.3,31.6,1.4,32c0.3,0.8-0.2,1.6-1,1.9
		s-1.6-0.2-1.9-1s0.2-1.6,1-1.9C-0.3,29.3,1.2,28,3,28h2.5v-3h-2c-1.1,0-2-0.9-2-2v-3c0-1.1,0.9-2,2-2h5c1.1,0,2,0.9,2,2v3
		c0,1.1-0.9,2-2,2h-2v3H9c1.8,0,3.2,1.3,3.5,3.1c0.4,0.1,0.8,0.5,0.9,0.9C13.7,32.7,13.3,33.6,12.5,33.9z"/>
	<path class="st0" d="M9.5,23v-3c0-0.6-0.4-1-1-1h-5c-0.6,0-1,0.4-1,1v3c0,0.6,0.4,1,1,1h5C9,24,9.5,23.5,9.5,23z"/>
	<circle class="st0" cx="0" cy="32.5" r="0.5"/>
	<circle class="st0" cx="12" cy="32.5" r="0.5"/>
</g>
</svg>
