<?xml version="1.0" encoding="UTF-8"?>
<svg width="20px" height="16px" viewBox="0 0 20 16" version="1.1" xmlns="http://www.w3.org/2000/svg" xmlns:xlink="http://www.w3.org/1999/xlink">
    <!-- Generator: Sketch 44.1 (41455) - http://www.bohemiancoding.com/sketch -->
    <title>slice</title>
    <desc>Created with Sketch.</desc>
    <defs></defs>
    <g id="Page-1" stroke="none" stroke-width="1">
        <g id="Artboard" transform="translate(-29.000000, -29.000000)" fill-rule="nonzero">
            <g id="noun_dashboard_1666606" transform="translate(30.000000, 30.000000)">
                <g id="Group" transform="translate(0.000000, 0.153957)">
                    <path d="M9,2.4137931e-06 C4.04161457,2.4137931e-06 0,3.79388172 0,8.44827828 C0,10.3083472 0.644186571,12.0362852 1.73571429,13.4342576 L3.31071429,12.1971886 C2.51971714,11.1386438 2.05714286,9.84518862 2.05714286,8.44827828 C2.05714286,4.83747793 5.15338714,1.9310369 9,1.9310369 C12.8466129,1.9310369 15.9428571,4.83747793 15.9428571,8.44827828 C15.9428571,9.84518862 15.4802829,11.1386438 14.6892857,12.1971886 L16.2642857,13.4342576 C17.3558134,12.0362852 18,10.3083472 18,8.44827828 C18,3.79387931 13.9583854,0 9,0 L9,2.4137931e-06 Z M13.5482143,6.59267483 L8.97589286,9.65517483 C8.65428943,9.66048517 8.33735829,9.77934034 8.09196429,10.0097128 C7.58984657,10.48103 7.589862,11.2431128 8.09196429,11.71443 C8.59406914,12.1857714 9.405918,12.1857714 9.90803571,11.71443 C10.1534297,11.4840817 10.2801703,11.1865817 10.2857143,10.8847128 L13.5482143,6.59267483 Z" id="Shape"></path>
                </g>
            </g>
        </g>
    </g>
</svg>