<?xml version="1.0" encoding="UTF-8"?>
<svg width="46px" height="46px" viewBox="11 11 25 25" version="1.1" xmlns="http://www.w3.org/2000/svg" xmlns:xlink="http://www.w3.org/1999/xlink">
    <g id="Page-1" stroke="none" stroke-width="1">
        <g id="Artboard" transform="translate(-29.000000, -29.000000)">
            <g id="deployment-profile" transform="translate(30.000000, 30.000000)">
                <circle id="Oval-5" stroke-width="2" cx="22" cy="22" r="21" fill="none"></circle>
                <path d="M26.6875,16.5625 L17.3125,16.5625 C16.8982864,16.5625 16.5625,16.8982864 16.5625,17.3125 L16.5625,26.6875 C16.5625,27.1017136 16.8982864,27.4375 17.3125,27.4375 L26.6875,27.4375 C27.1017136,27.4375 27.4375,27.1017136 27.4375,26.6875 L27.4375,17.3125 C27.4375,16.8982864 27.1017136,16.5625 26.6875,16.5625 Z M25.9375,25.9375 L18.0625,25.9375 L18.0625,18.0625 L25.9375,18.0625 L25.9375,25.9375 Z" id="Shape" fill-rule="nonzero"></path>
                <path d="M33.25,17.6875 C33.6642136,17.6875 34,17.3517136 34,16.9375 C34,16.5232864 33.6642136,16.1875 33.25,16.1875 L30.8125,16.1875 L30.8125,15.88375 C30.8125,14.3946522 29.6053478,13.1875 28.11625,13.1875 L27.8125,13.1875 L27.8125,12.25 C27.8125,11.8357864 27.4767136,11.5 27.0625,11.5 C26.6482864,11.5 26.3125,11.8357864 26.3125,12.25 L26.3125,13.1875 L24.4375,13.1875 L24.4375,10.75 C24.4375,10.3357864 24.1017136,10 23.6875,10 C23.2732864,10 22.9375,10.3357864 22.9375,10.75 L22.9375,13.1875 L21.0625,13.1875 L21.0625,12.25 C21.0625,11.8357864 20.7267136,11.5 20.3125,11.5 C19.8982864,11.5 19.5625,11.8357864 19.5625,12.25 L19.5625,13.1875 L17.6875,13.1875 L17.6875,10.75 C17.6875,10.3357864 17.3517136,10 16.9375,10 C16.5232864,10 16.1875,10.3357864 16.1875,10.75 L16.1875,13.1875 L15.88375,13.1875 C14.3946522,13.1875 13.1875,14.3946522 13.1875,15.88375 L13.1875,16.1875 L12.25,16.1875 C11.8357864,16.1875 11.5,16.5232864 11.5,16.9375 C11.5,17.3517136 11.8357864,17.6875 12.25,17.6875 L13.1875,17.6875 L13.1875,19.5625 L10.75,19.5625 C10.3357864,19.5625 10,19.8982864 10,20.3125 C10,20.7267136 10.3357864,21.0625 10.75,21.0625 L13.1875,21.0625 L13.1875,22.9375 L12.25,22.9375 C11.8357864,22.9375 11.5,23.2732864 11.5,23.6875 C11.5,24.1017136 11.8357864,24.4375 12.25,24.4375 L13.1875,24.4375 L13.1875,26.3125 L10.75,26.3125 C10.3357864,26.3125 10,26.6482864 10,27.0625 C10,27.4767136 10.3357864,27.8125 10.75,27.8125 L13.1875,27.8125 L13.1875,28.11625 C13.1875,29.6053478 14.3946522,30.8125 15.88375,30.8125 L16.1875,30.8125 L16.1875,31.75 C16.1875,32.1642136 16.5232864,32.5 16.9375,32.5 C17.3517136,32.5 17.6875,32.1642136 17.6875,31.75 L17.6875,30.8125 L19.5625,30.8125 L19.5625,33.25 C19.5625,33.6642136 19.8982864,34 20.3125,34 C20.7267136,34 21.0625,33.6642136 21.0625,33.25 L21.0625,30.8125 L22.9375,30.8125 L22.9375,31.75 C22.9375,32.1642136 23.2732864,32.5 23.6875,32.5 C24.1017136,32.5 24.4375,32.1642136 24.4375,31.75 L24.4375,30.8125 L26.3125,30.8125 L26.3125,33.25 C26.3125,33.6642136 26.6482864,34 27.0625,34 C27.4767136,34 27.8125,33.6642136 27.8125,33.25 L27.8125,30.8125 L28.11625,30.8125 C29.6053478,30.8125 30.8125,29.6053478 30.8125,28.11625 L30.8125,27.8125 L31.75,27.8125 C32.1642136,27.8125 32.5,27.4767136 32.5,27.0625 C32.5,26.6482864 32.1642136,26.3125 31.75,26.3125 L30.8125,26.3125 L30.8125,24.4375 L33.25,24.4375 C33.6642136,24.4375 34,24.1017136 34,23.6875 C34,23.2732864 33.6642136,22.9375 33.25,22.9375 L30.8125,22.9375 L30.8125,21.0625 L31.75,21.0625 C32.1642136,21.0625 32.5,20.7267136 32.5,20.3125 C32.5,19.8982864 32.1642136,19.5625 31.75,19.5625 L30.8125,19.5625 L30.8125,17.6875 L33.25,17.6875 Z M29.3125,28.11625 C29.3125,28.7769206 28.7769206,29.3125 28.11625,29.3125 L15.88375,29.3125 C15.2230794,29.3125 14.6875,28.7769206 14.6875,28.11625 L14.6875,15.88375 C14.6875,15.2230794 15.2230794,14.6875 15.88375,14.6875 L28.11625,14.6875 C28.7769206,14.6875 29.3125,15.2230794 29.3125,15.88375 L29.3125,28.11625 Z" id="Shape" fill-rule="nonzero"></path>
            </g>
        </g>
    </g>
</svg>