<?xml version="1.0" encoding="UTF-8"?>
<svg width="46px" height="46px" viewBox="11 11 24 24" version="1.1" xmlns="http://www.w3.org/2000/svg" xmlns:xlink="http://www.w3.org/1999/xlink">
    <g id="Page-1" stroke="none" stroke-width="1">
        <g id="Artboard" transform="translate(-29.000000, -29.000000)">
            <g id="name-project" transform="translate(30.000000, 30.000000)">
                <circle id="Oval-5" stroke-width="2" cx="22" cy="22" r="21" fill="none"></circle>
                <g id="Group" transform="translate(11.000000, 11.000000)" fill-rule="nonzero">
                    <path d="M10.3459459,0.118918919 L1.84324324,0.327027027 C1.01081081,0.356756757 0.327027027,1.01081081 0.327027027,1.84324324 L0.118918919,10.3459459 C0.118918919,10.7621622 0.267567568,11.1783784 0.564864865,11.5054054 L9.81081081,20.7513514 C10.5243243,21.4648649 11.5054054,21.8810811 12.5162162,21.8810811 C13.527027,21.8810811 14.5081081,21.4945946 15.2216216,20.7513514 L20.7216216,15.2513514 C21.4351351,14.5378378 21.8513514,13.5567568 21.8513514,12.5459459 C21.8513514,11.5351351 21.4648649,10.5540541 20.7216216,9.84054054 L11.5054054,0.564864865 C11.2081081,0.267567568 10.7918919,0.118918919 10.3459459,0.118918919 Z M20.6918919,12.5459459 C20.6918919,13.2594595 20.4243243,13.9135135 19.9189189,14.4189189 L14.4189189,19.9189189 C13.9135135,20.4243243 13.2594595,20.6918919 12.5459459,20.6918919 C11.8324324,20.6918919 11.1783784,20.4243243 10.672973,19.9189189 L1.42702703,10.672973 C1.36756757,10.6135135 1.30810811,10.4945946 1.30810811,10.4054054 L1.51621622,1.9027027 C1.51621622,1.69459459 1.69459459,1.54594595 1.87297297,1.54594595 L10.3756757,1.33783784 C10.3756757,1.33783784 10.3756757,1.33783784 10.3756757,1.33783784 C10.4648649,1.33783784 10.5837838,1.36756757 10.6432432,1.45675676 L19.9189189,10.672973 C20.4243243,11.1783784 20.6918919,11.8324324 20.6918919,12.5459459 Z" id="Shape"></path>
                    <path d="M5.41081081,5.41081081 C4.25135135,6.57027027 4.25135135,8.44324324 5.41081081,9.6027027 C5.97567568,10.1675676 6.74864865,10.4648649 7.52162162,10.4648649 C8.29459459,10.4648649 9.03783784,10.1675676 9.63243243,9.6027027 C10.7918919,8.44324324 10.7918919,6.57027027 9.63243243,5.41081081 C8.47297297,4.25135135 6.57027027,4.25135135 5.41081081,5.41081081 Z M8.77027027,8.77027027 C8.08648649,9.45405405 6.95675676,9.45405405 6.24324324,8.77027027 C5.55945946,8.08648649 5.55945946,6.95675676 6.24324324,6.24324324 C6.6,5.88648649 7.04594595,5.70810811 7.49189189,5.70810811 C7.93783784,5.70810811 8.41351351,5.88648649 8.74054054,6.24324324 C9.45405405,6.92702703 9.45405405,8.05675676 8.77027027,8.77027027 Z" id="Shape"></path>
                </g>
            </g>
        </g>
    </g>
</svg>