<?xml version="1.0" encoding="utf-8"?>
<!-- Generator: Adobe Illustrator 24.0.0, SVG Export Plug-In . SVG Version: 6.00 Build 0)  -->
<svg version="1.1" id="Layer_1" xmlns="http://www.w3.org/2000/svg" xmlns:xlink="http://www.w3.org/1999/xlink" x="0px" y="0px"
	 viewBox="0 0 43 57" xml:space="preserve">
<g>
	<path class="st0" d="M22.6,11.3c0.4,0,0.7-0.3,0.7-0.7V9.3c0-0.4,0.3-0.7,0.7-0.7c0.4,0,0.7,0.3,0.7,0.7v1.3c0,0.4,0.3,0.7,0.7,0.7
		c0.4,0,0.7-0.3,0.7-0.7V9.3c0-1.1-0.9-2-2.1-2s-2.1,0.9-2.1,2v1.3C21.9,11,22.2,11.3,22.6,11.3L22.6,11.3z"/>
	<path class="st0" d="M19.1,11.3c0.4,0,0.7-0.3,0.7-0.7V9.3c0-1.1-0.9-2-2-2c-1.1,0-2,0.9-2,2v1.3c0,0.4,0.3,0.7,0.7,0.7
		c0.4,0,0.7-0.3,0.7-0.7V9.3c0-0.4,0.3-0.7,0.7-0.7c0.4,0,0.7,0.3,0.7,0.7v1.3C18.4,11,18.7,11.3,19.1,11.3L19.1,11.3z"/>
	<path class="st0" d="M23.3,14c0-0.4-0.3-0.7-0.7-0.7c-0.4,0-0.7,0.3-0.7,0.7c0,0.3-0.5,0.6-1.1,0.6c-0.6,0-1.1-0.3-1.1-0.6
		c0-0.4-0.3-0.7-0.7-0.7c-0.4,0-0.7,0.3-0.7,0.7c0,1.1,1.1,2,2.5,2C22.3,16.1,23.3,15.2,23.3,14L23.3,14z"/>
	<path class="st0" d="M38.9,30.5c-1.3-2.1-2.6-4-3.9-5.8c-0.9-1.4-2.5-2.2-4.2-2.4c0,0,0,0,0,0c0,0,0,0,0,0l-9-0.1v-2.9
		c3.3-0.4,6.1-2.5,7.5-5.4h1.3c1.2,0,2.2-0.9,2.2-2.1V9.2c0-1.1-1-2.1-2.2-2.1h-1C28.2,3.6,24.8,1,20.7,1c-4,0-7.5,2.6-8.8,6.1h-1.2
		C9.6,7.1,8.6,8,8.6,9.2v2.7c0,1.1,1,2.1,2.2,2.1h1.4c1.4,3.1,4.5,5.3,8.1,5.4v2.8l-9.2,0c0,0,0,0,0,0c0,0,0,0,0,0
		c-1.7,0.2-3.2,1.1-4.1,2.4c-1.3,1.8-2.5,3.6-3.9,5.8C2,32.2,0.9,34.4,1,36.9c0.1,1.7,0.8,3.3,1.9,4.6c0.9,1.1,2.3,2.1,3.9,2.7
		L7,44.3c1.2,0.5,2.3,1.4,3,2.5c0.8,1.2,2,2.4,3.2,3v3.7c0,0.8,0.7,1.5,1.5,1.5h6.5h0h6.2c0.8,0,1.5-0.7,1.5-1.5v-3.7
		c1.1-0.6,2.4-1.8,3.2-3c0.8-1.1,1.9-2,3-2.5l0.2-0.1c1.6-0.6,2.9-1.6,3.8-2.7c1.1-1.3,1.8-2.9,1.9-4.6C41.2,34.4,40,32.3,38.9,30.5
		L38.9,30.5z M30.5,8.5c0.4,0,0.8,0.3,0.8,0.7v2.7c0,0.4-0.4,0.7-0.8,0.7h-0.8c0.2-0.8,0.3-1.6,0.3-2.4c0-0.6-0.1-1.2-0.2-1.7
		L30.5,8.5L30.5,8.5L30.5,8.5z M10.8,12.6c-0.4,0-0.8-0.3-0.8-0.7V9.2c0-0.4,0.4-0.7,0.8-0.7h0.8c-0.1,0.6-0.2,1.1-0.2,1.7
		c0,0.8,0.1,1.6,0.3,2.4L10.8,12.6L10.8,12.6L10.8,12.6z M12.8,10.2c0-4.3,3.6-7.8,7.9-7.8c4.4,0,7.9,3.5,7.9,7.8
		c0,4.3-3.6,7.8-7.9,7.8C16.4,18.1,12.8,14.6,12.8,10.2L12.8,10.2z M27.5,53.5C27.5,53.6,27.4,53.6,27.5,53.5l-6.3,0.1h0h-6.5
		c-0.1,0-0.1-0.1-0.1-0.1v-7.1c0.8,0.6,1.3,1.3,1.6,1.7c0.2,0.3,0.6,0.5,1,0.5c0.4,0,0.8-0.1,1.1-0.4c1-0.9,0.3-1.9-0.2-2.6
		c-0.2-0.2-0.4-0.5-0.6-0.8h7.2c-0.2,0.3-0.4,0.6-0.5,0.8c-0.5,0.7-1.2,1.7-0.2,2.5c0.3,0.3,0.7,0.4,1.1,0.4c0.4,0,0.8-0.2,1-0.6
		c0.3-0.4,0.8-1.1,1.5-1.7L27.5,53.5L27.5,53.5L27.5,53.5z M39.6,36.9c-0.1,1.4-0.7,2.7-1.6,3.8c-0.8,1-1.9,1.8-3.3,2.3l-0.2,0.1
		c-1.4,0.6-2.7,1.7-3.7,3c-0.5,0.8-1.3,1.6-2.1,2.1v-2.2c0-0.4-0.2-0.8-0.6-1.1c-0.4-0.2-0.9-0.2-1.3,0.1c-1.1,0.8-1.7,1.7-2.2,2.2
		c0-0.1,0.3-0.5,0.5-0.7c0.4-0.5,0.9-1.3,1.3-2.3c0.5-1.3,2.5-2.3,4.4-3.2c0,0,0.1,0,0.1-0.1c0,0,0,0,0,0c2.2-1.1,4.5-2.3,4.7-4.3
		c0-1-0.5-2-3.2-6.2c-0.3-0.5-0.9-0.7-1.5-0.5c-0.6,0.2-1,0.7-1,1.3v8.6c-2,1-4,2.1-4.7,3.7h-8.6c-0.8-1.6-2.9-2.7-5-3.7v-8.6
		c0-0.6-0.4-1.1-1-1.3c-0.6-0.2-1.2,0-1.5,0.5c-2.9,4.2-3.4,5.1-3.4,6.2c0.1,2,2.4,3.1,4.9,4.3c0,0,0,0,0.1,0c0,0,0.1,0,0.1,0.1
		c2,0.9,4.1,1.9,4.6,3.2c0.4,1,1,1.8,1.4,2.3c0.2,0.3,0.5,0.6,0.5,0.7c0,0,0,0-0.1,0.1c-0.4-0.5-1-1.4-2.2-2.2
		c-0.4-0.2-0.9-0.3-1.3,0c-0.4,0.2-0.6,0.6-0.6,1.1v2.1c-0.7-0.6-1.5-1.3-2-2.1c-0.9-1.3-2.2-2.4-3.7-3L7.3,43
		C6,42.5,4.8,41.7,4,40.7c-0.9-1.1-1.5-2.4-1.6-3.8c-0.1-2.2,0.8-4,1.9-5.7c1.3-2.1,2.6-4,3.8-5.7c0.7-1,1.9-1.7,3.1-1.8l9.8,0
		c0,0,0,0,0.1,0c0,0,0,0,0.1,0l9.6,0c1.3,0.1,2.4,0.8,3.1,1.8c1.2,1.7,2.5,3.6,3.8,5.7C38.8,32.9,39.8,34.7,39.6,36.9L39.6,36.9z
		 M31.4,31.2c2.4,3.7,3,4.7,3,5.3c-0.1,1-1.4,1.8-2.9,2.6L31.4,31.2L31.4,31.2L31.4,31.2z M10.4,31.2v8c-1.6-0.8-3-1.7-3.1-2.6
		C7.3,35.9,7.9,34.8,10.4,31.2L10.4,31.2z"/>
	<path class="st0" d="M23.5,30.6c-1,0-1.9,0.4-2.6,1c-0.7-0.7-1.7-1-2.6-1c-1,0-1.9,0.4-2.5,1.1c-0.6,0.6-0.9,1.5-0.8,2.4
		c0.4,3.9,5.5,5.9,5.7,6c0.1,0,0.2,0,0.3,0c0.1,0,0.2,0,0.3,0c0.2-0.1,5.3-2.2,5.7-6c0.1-0.9-0.2-1.7-0.7-2.3
		C25.4,31,24.5,30.6,23.5,30.6L23.5,30.6z M25.4,33.9c-0.2,2.6-3.6,4.3-4.6,4.8c-1-0.4-4.3-2.2-4.6-4.8c-0.1-0.6,0.2-1.1,0.4-1.3
		c0.4-0.4,1-0.6,1.6-0.6c0.8,0,1.7,0.5,1.9,1c0.1,0.3,0.3,0.5,0.7,0.5c0.3,0,0.6-0.2,0.7-0.4c0.2-0.6,1.1-1.1,1.9-1.1
		c0.6,0,1.2,0.3,1.5,0.7C25.3,33,25.5,33.4,25.4,33.9L25.4,33.9z"/>
</g>
</svg>
