<?xml version="1.0" encoding="UTF-8"?>
<svg width="19px" height="15px" viewBox="0 0 19 15" version="1.1" xmlns="http://www.w3.org/2000/svg" xmlns:xlink="http://www.w3.org/1999/xlink">
    <!-- Generator: Sketch 44.1 (41455) - http://www.bohemiancoding.com/sketch -->
    <title>slice</title>
    <desc>Created with Sketch.</desc>
    <defs></defs>
    <g id="Page-1" stroke="none" stroke-width="1">
        <g id="Artboard" transform="translate(-29.000000, -29.000000)" fill-rule="nonzero">
            <g id="noun_optimization_3244918" transform="translate(30.000000, 30.000000)">
                <g id="Group">
                    <path d="M5.46465,0 C4.00301429,0 2.77391429,1.01954864 2.49037857,2.36363636 L0.615582143,2.36363636 C0.273275,2.35890909 -0.00522142857,2.63080409 6.07142857e-05,2.96031273 C0.00613214286,3.28982727 0.280682143,3.54991591 0.615582143,3.54545455 L2.49037857,3.54545455 C2.77391429,4.88954227 4.00301429,5.90909091 5.46465,5.90909091 C6.926225,5.90909091 8.155325,4.88954227 8.4388,3.54545455 L16.3842357,3.54545455 C17.205275,3.55674091 17.205275,2.35232636 16.3842357,2.36363636 L8.4388,2.36363636 C8.155325,1.01954864 6.926225,0 5.46465,0 Z M5.46465,1.18181818 C6.47778929,1.18181818 7.28613929,1.96849545 7.28613929,2.95454545 C7.28613929,3.94059545 6.47778929,4.72727273 5.46465,4.72727273 C4.45145,4.72727273 3.6431,3.94059545 3.6431,2.95454545 C3.6431,1.96849545 4.45145,1.18181818 5.46465,1.18181818 Z" id="Shape"></path>
                    <path d="M11.5363214,7.09090909 C10.0747464,7.09090909 8.84558571,8.11045773 8.56211071,9.45454545 L0.615582143,9.45454545 C0.273275,9.44981818 -0.00522142857,9.72171318 6.07142857e-05,10.0512218 C0.00613214286,10.3807364 0.280682143,10.640825 0.615582143,10.6363636 L8.56211071,10.6363636 C8.84558571,11.9804455 10.0747464,13 11.5363214,13 C12.9978964,13 14.2269964,11.9804455 14.5104714,10.6363636 L16.3842357,10.6363636 C17.205275,10.64765 17.205275,9.44323545 16.3842357,9.45454545 L14.5104714,9.45454545 C14.2269964,8.11045773 12.9978964,7.09090909 11.5363214,7.09090909 Z M11.5363214,8.27272727 C12.5495214,8.27272727 13.3578107,9.05940455 13.3578107,10.0454545 C13.3578107,11.0314986 12.5495214,11.8181818 11.5363214,11.8181818 C10.5231214,11.8181818 9.71483214,11.0314986 9.71483214,10.0454545 C9.71483214,9.05940455 10.5231214,8.27272727 11.5363214,8.27272727 Z" id="Shape"></path>
                </g>
            </g>
        </g>
    </g>
</svg>