<?xml version="1.0" encoding="UTF-8"?>
<svg width="17px" height="20px" viewBox="0 0 17 20" version="1.1" xmlns="http://www.w3.org/2000/svg" xmlns:xlink="http://www.w3.org/1999/xlink">
    <g id="Page-1" stroke="none" stroke-width="1" fill="none" fill-rule="evenodd" fill-opacity="0.54">
        <g id="Artboard" transform="translate(-225.000000, -269.000000)" fill-rule="nonzero" fill="#000000">
            <g id="noun_edit_3235716" transform="translate(226.000000, 270.000000)">
                <g id="Group">
                    <g id="Shape">
                        <path d="M3.54697157,13.4751064 C2.76266996,13.4751064 1.97651422,13.4751064 1.19221261,13.4751064 C1.08096415,13.4751064 0.969715698,13.4751064 0.858467244,13.4751064 C1.13658838,13.7623404 1.41470952,14.0495745 1.69283066,14.3368085 C1.69283066,13.5268085 1.69283066,12.7148936 1.69283066,11.9048936 C1.69283066,11.79 1.69283066,11.6751064 1.69283066,11.5602128 C1.61124845,11.7631915 1.52966625,11.9661702 1.44808405,12.1691489 C1.5407911,12.0734043 1.631644,11.9795745 1.72435105,11.8838298 C1.97280593,11.627234 2.22311496,11.3687234 2.47156984,11.1121277 C2.83868974,10.7329787 3.20766378,10.3519149 3.57478368,9.97276596 C4.02533993,9.50744681 4.47589617,9.04212766 4.92645241,8.57680851 C5.41779975,8.0693617 5.9091471,7.56191489 6.40049444,7.05446809 C6.89555006,6.54319149 7.39245983,6.03 7.88751545,5.5187234 C8.35105068,5.04 8.81458591,4.5612766 9.27997528,4.0806383 C9.66934487,3.67851064 10.0587145,3.27638298 10.4480841,2.87425532 C10.7280593,2.58510638 11.0061805,2.29787234 11.2861557,2.0087234 C11.4177998,1.87276596 11.5475896,1.73680851 11.6792336,1.60276596 C11.697775,1.58361702 11.7144623,1.56829787 11.7348578,1.55106383 C11.6792336,1.59510638 11.6217553,1.64106383 11.566131,1.68510638 C11.5883807,1.66978723 11.6106304,1.65638298 11.6347342,1.64489362 C11.5679852,1.67361702 11.5012361,1.70234043 11.4363412,1.73106383 C11.4697157,1.71765957 11.5012361,1.71 11.5346106,1.70425532 C11.460445,1.71382979 11.3862794,1.72531915 11.3121137,1.73489362 C11.3380717,1.73297872 11.3621755,1.73297872 11.3881335,1.73489362 C11.3139679,1.72531915 11.2398022,1.71382979 11.1656366,1.70425532 C11.2008653,1.71 11.2323857,1.71765957 11.2639061,1.73106383 C11.197157,1.70234043 11.1304079,1.67361702 11.065513,1.64489362 C11.0896168,1.65638298 11.1118665,1.66978723 11.1341162,1.68510638 C11.078492,1.64106383 11.0210136,1.59510638 10.9653894,1.55106383 C11.0562423,1.62574468 11.1341162,1.71957447 11.2156984,1.80382979 C11.3918418,1.98574468 11.5679852,2.16765957 11.7441286,2.34957447 C12.1427689,2.7612766 12.5432633,3.17489362 12.9419036,3.58659574 C13.0401731,3.68808511 13.1495674,3.78382979 13.236712,3.89680851 C13.1940667,3.8393617 13.1495674,3.78 13.1069221,3.72255319 C13.1217553,3.74553191 13.1347342,3.76851064 13.1458591,3.79340426 C13.118047,3.72446809 13.0902349,3.65553191 13.0624227,3.58851064 C13.0754017,3.62297872 13.0828183,3.65553191 13.0883807,3.69 C13.07911,3.61340426 13.0679852,3.53680851 13.0587145,3.46021277 C13.0605686,3.48702128 13.0605686,3.51191489 13.0587145,3.5387234 C13.0679852,3.46212766 13.07911,3.38553191 13.0883807,3.30893617 C13.0828183,3.34531915 13.0754017,3.37787234 13.0624227,3.41042553 C13.0902349,3.34148936 13.118047,3.27255319 13.1458591,3.20553191 C13.1347342,3.23042553 13.1217553,3.25340426 13.1069221,3.27638298 C13.1495674,3.21893617 13.1940667,3.15957447 13.236712,3.10212766 C13.1477132,3.21702128 13.0346106,3.31659574 12.934487,3.42 C12.6878863,3.67468085 12.4412855,3.9293617 12.1946848,4.18404255 C11.8275649,4.56319149 11.4622991,4.94042553 11.0951792,5.31957447 C10.644623,5.78489362 10.1959209,6.24829787 9.74536465,6.71361702 C9.25401731,7.22106383 8.76266996,7.72851064 8.27317676,8.23404255 C7.776267,8.74723404 7.28121137,9.25851064 6.78430161,9.77170213 C6.31891224,10.2523404 5.85537701,10.7310638 5.38998764,11.2117021 C4.99876391,11.6157447 4.60754017,12.0197872 4.21631644,12.4238298 C3.93448702,12.7148936 3.6526576,13.0059574 3.37082818,13.2970213 C3.23733004,13.4348936 3.10197775,13.572766 2.9684796,13.7125532 C2.96291718,13.7182979 2.95735476,13.7240426 2.95179234,13.7297872 C2.79975278,13.8868085 2.70704574,14.1185106 2.70704574,14.3387234 C2.70704574,14.5493617 2.79789864,14.8021277 2.95179234,14.9476596 C3.11124845,15.0989362 3.31891224,15.21 3.54140915,15.2004255 C3.76205192,15.1908511 3.97156984,15.1123404 4.13102596,14.9476596 C4.26637824,14.8078723 4.40173053,14.6680851 4.53708282,14.5282979 C4.89678616,14.1568085 5.25463535,13.787234 5.61433869,13.4157447 C6.12422744,12.8891489 6.63411619,12.3625532 7.14400494,11.8359574 C7.73733004,11.2231915 8.32880099,10.6123404 8.92212608,9.99957447 C9.5302843,9.37148936 10.1365884,8.74531915 10.7447466,8.11723404 C11.2935723,7.55042553 11.8442522,6.98170213 12.3930779,6.41489362 C12.8139679,5.98021277 13.2330037,5.54744681 13.6538937,5.11276596 C13.8763906,4.88297872 14.1007417,4.6512766 14.3232386,4.42148936 C14.3399258,4.40425532 14.3566131,4.38702128 14.3733004,4.36978723 C14.6718171,4.04617021 14.8016069,3.59042553 14.6773795,3.15382979 C14.5716934,2.78808511 14.2917182,2.54489362 14.0414091,2.28638298 C13.4944376,1.72148936 12.947466,1.15659574 12.4004944,0.591702128 C12.3355995,0.524680851 12.2688504,0.455744681 12.2039555,0.388723404 C11.8220025,-0.00191489362 11.2694685,-0.0938297872 10.789246,0.157021277 C10.6427689,0.233617021 10.5352287,0.344680851 10.4221261,0.459574468 C10.1773795,0.712340426 9.93263288,0.965106383 9.68788628,1.21787234 C9.25030902,1.66978723 8.81458591,2.11978723 8.37700865,2.57170213 C7.81891224,3.14808511 7.26081582,3.72446809 6.70271941,4.30085106 C6.09641533,4.92702128 5.48825711,5.55510638 4.88195303,6.1812766 C4.29419036,6.78829787 3.70642769,7.39531915 3.11866502,8.00234043 C2.61804697,8.5193617 2.11742892,9.03638298 1.61681088,9.55340426 C1.27564895,9.90574468 0.936341162,10.2561702 0.595179234,10.6085106 C0.508034611,10.6985106 0.419035847,10.7904255 0.331891224,10.8804255 C0.311495674,10.9014894 0.291100124,10.9206383 0.272558714,10.9417021 C0.107540173,11.1159574 0.0241038319,11.3361702 0.0166872682,11.5793617 C7.61370134e-15,12.2840426 0.0166872682,12.9925532 0.0166872682,13.697234 C0.0166872682,13.9117021 0.0166872682,14.1261702 0.0166872682,14.3387234 C0.0166872682,14.8040426 0.398640297,15.2004255 0.85105068,15.2004255 C1.63535229,15.2004255 2.42150803,15.2004255 3.20580964,15.2004255 C3.3170581,15.2004255 3.42830655,15.2004255 3.53955501,15.2004255 C3.75278121,15.2004255 3.9789864,15.1046809 4.12917182,14.9476596 C4.27379481,14.7982979 4.38318912,14.5531915 4.37391842,14.3387234 C4.36464771,14.1165957 4.29419036,13.8848936 4.12917182,13.7297872 C3.97342398,13.572766 3.77317676,13.4751064 3.54697157,13.4751064 Z"></path>
                        <path d="M9.27997528,4.73553191 C9.76205192,5.23340426 10.2441286,5.7312766 10.7262052,6.22914894 C10.8374536,6.34404255 10.9505562,6.46085106 11.0618047,6.57574468 C11.2138443,6.73276596 11.4381953,6.82851064 11.6514215,6.82851064 C11.855377,6.82851064 12.1001236,6.73468085 12.2410383,6.57574468 C12.3875155,6.41106383 12.4950556,6.19659574 12.4857849,5.96680851 C12.4765142,5.73893617 12.4004944,5.52255319 12.2410383,5.35787234 C11.9388133,5.04574468 11.6365884,4.73361702 11.3343634,4.42148936 C10.8522868,3.92361702 10.3702101,3.42574468 9.8881335,2.92787234 C9.77688504,2.81297872 9.66378245,2.69617021 9.55253399,2.5812766 C9.40049444,2.42425532 9.17614339,2.32851064 8.96291718,2.32851064 C8.75896168,2.32851064 8.51421508,2.42234043 8.37330037,2.5812766 C8.22682324,2.74595745 8.11928307,2.96042553 8.12855377,3.19021277 C8.13782447,3.41808511 8.21384425,3.63446809 8.37330037,3.79914894 C8.67552534,4.1112766 8.97775031,4.42340426 9.27997528,4.73553191 Z"></path>
                    </g>
                    <path d="M1.31273177,17.9904255 C1.631644,17.9904255 1.95055624,17.9904255 2.26946848,17.9904255 C2.74412855,17.9904255 3.21693449,17.9904255 3.69159456,17.9904255 C4.27008653,17.9904255 4.84857849,17.9904255 5.42707046,17.9904255 C6.06118665,17.9904255 6.69530284,17.9904255 7.32756489,17.9904255 C7.96353523,17.9904255 8.6013597,17.9904255 9.23733004,17.9904255 C9.83436341,17.9904255 10.4295426,17.9904255 11.026576,17.9904255 C11.5309023,17.9904255 12.0352287,17.9904255 12.539555,17.9904255 C12.9011125,17.9904255 13.2608158,17.9904255 13.6223733,17.9904255 C13.7948084,17.9904255 13.9672435,17.9923404 14.1378245,17.9904255 C14.3733004,17.9904255 14.5995056,17.8946809 14.749691,17.7376596 C14.894314,17.5882979 15.0037083,17.3431915 14.9944376,17.1287234 C14.9851669,16.9065957 14.9147095,16.6748936 14.749691,16.5197872 C14.5865266,16.3646809 14.3862794,16.2670213 14.1600742,16.2670213 C14.0414091,16.2670213 13.9245983,16.2670213 13.8059333,16.2670213 C13.487021,16.2670213 13.1681088,16.2670213 12.8491965,16.2670213 C12.3745365,16.2670213 11.9017305,16.2670213 11.4270705,16.2670213 C10.8485785,16.2670213 10.2700865,16.2670213 9.69159456,16.2670213 C9.05747837,16.2670213 8.42336218,16.2670213 7.79110012,16.2670213 C7.15512979,16.2670213 6.51730532,16.2670213 5.88133498,16.2670213 C5.28430161,16.2670213 4.68912237,16.2670213 4.092089,16.2670213 C3.58776267,16.2670213 3.08343634,16.2670213 2.57911001,16.2670213 C2.21755253,16.2670213 1.8578492,16.2670213 1.49629172,16.2670213 C1.32385661,16.2670213 1.15142151,16.2651064 0.980840544,16.2670213 C0.745364648,16.2670213 0.519159456,16.362766 0.368974042,16.5197872 C0.224351051,16.6691489 0.114956737,16.9142553 0.124227441,17.1287234 C0.133498146,17.3508511 0.203955501,17.5825532 0.368974042,17.7376596 C0.530284302,17.892766 0.732385661,17.9904255 0.958590853,17.9904255 C1.07725587,17.9904255 1.19406675,17.9904255 1.31273177,17.9904255 Z" id="Shape"></path>
                </g>
            </g>
        </g>
    </g>
</svg>