<?xml version="1.0" encoding="utf-8"?>
<!-- Generator: Adobe Illustrator 24.0.0, SVG Export Plug-In . SVG Version: 6.00 Build 0)  -->
<svg version="1.1" id="Layer_1" xmlns="http://www.w3.org/2000/svg" xmlns:xlink="http://www.w3.org/1999/xlink" x="0px" y="0px"
	 viewBox="0 0 47 57" xml:space="preserve">
<g>
	<path class="st0" d="M24.9,11.5c0.1,0.1,0.3,0.2,0.5,0.2c0.2,0,0.4-0.1,0.6-0.3c0.6-0.7,0.9-1.6,0.9-2.6S26.5,7,26,6.2
		c-0.3-0.3-0.7-0.3-1-0.1c-0.3,0.3-0.3,0.8-0.1,1.1c0.4,0.4,0.6,1,0.6,1.6s-0.2,1.2-0.6,1.6C24.6,10.7,24.6,11.2,24.9,11.5
		L24.9,11.5z"/>
	<path class="st0" d="M27.1,12.4c0.1,0.1,0.3,0.2,0.5,0.2c0.2,0,0.4-0.1,0.5-0.2c1-1,1.5-2.4,1.5-3.8c0-1.5-0.5-2.8-1.5-3.8
		c-0.3-0.3-0.8-0.3-1.1,0c-0.3,0.3-0.3,0.8,0,1c0.7,0.8,1.1,1.8,1.1,2.8c0,1.1-0.4,2.1-1.1,2.8C26.8,11.6,26.8,12.1,27.1,12.4
		L27.1,12.4z"/>
	<path class="st0" d="M31.4,8.8c0,1.7-0.7,3.4-1.9,4.6c-0.3,0.3-0.3,0.8,0,1.1c0.1,0.1,0.3,0.2,0.5,0.2c0.2,0,0.4-0.1,0.5-0.2
		c1.5-1.5,2.4-3.6,2.4-5.7c0-2.1-0.8-4.1-2.4-5.6c-0.3-0.3-0.8-0.3-1.1,0c-0.3,0.3-0.3,0.8,0,1.1C30.7,5.5,31.4,7.2,31.4,8.8
		L31.4,8.8z"/>
	<path class="st0" d="M43.9,27.1h-0.8v-0.4c0-1.6-0.8-3-2.1-3.8v-0.1c0-2.3-2.2-4.2-4.8-4.2h-1.5c-2.6,0-4.7,1.8-4.8,4.2
		c-1.3,0.8-2.3,2.3-2.3,3.9v0.4H27l0,0.7c0,1.1,0.6,3.5,3.2,4.3l0.2,0c0.2,0,0.5,0.1,0.8,0.1h8.6c0.3,0,0.7,0,1-0.1
		c2.7-0.8,3.3-3.1,3.2-4.3L43.9,27.1L43.9,27.1L43.9,27.1z M34.8,20.1h1.5c1.5,0,2.8,0.9,3.2,2.1c-0.3,0-0.6-0.1-0.9-0.1h-6.3
		c-0.2,0-0.5,0-0.7,0.1C32,21,33.3,20.1,34.8,20.1L34.8,20.1z M29.3,26.7c0-1.7,1.4-3.1,3.1-3.1h6.3c1.7,0,3.1,1.4,3.1,3.1V27H29.3
		L29.3,26.7L29.3,26.7L29.3,26.7z M40.4,30.6c-0.2,0-0.4,0.1-0.7,0.1h-8.6c-0.2,0-0.4,0-0.6,0c-1.4-0.4-1.9-1.4-2-2.1h13.8
		C42.2,29.2,41.8,30.2,40.4,30.6L40.4,30.6z"/>
	<path class="st0" d="M37,34.1c-0.9-0.4-1.8-0.2-2.5-0.1c-0.9,0.2-1.8,0.3-2.7,0.5c-0.4,0-0.7,0.4-0.6,0.9c0,0.4,0.4,0.7,0.9,0.6
		c0.9-0.1,1.9-0.3,2.8-0.5c0.7-0.1,1.1-0.2,1.5,0c0.1,0,0.2,0.1,0.3,0.3l-2.8,1.3c-0.6,0.3-1.1,0.3-1.9,0.3c-0.6,0-1.2-0.1-2,0v-2.7
		c0-0.4-0.3-0.8-0.8-0.8h-9.4c-0.1,0-0.2,0-0.2,0c-0.3,0-0.6-0.1-0.8-0.4c-0.2-0.2-0.3-0.5-0.2-0.8l0.9-7c0.1-1.2-0.4-2.4-1.2-3.3
		c-0.8-0.9-2-1.4-3.2-1.4c-1.2,0-2.4,0.5-3.2,1.4c-0.9,0.9-1.3,2.1-1.2,3.4l1.3,10.9c0.2,1.8,1.7,3.1,3.5,3.1h13.8
		c0.4,0,0.8-0.3,0.8-0.8v0c0.7-0.1,1.3-0.1,1.9,0c0.9,0,1.8,0.1,2.7-0.4l2.7-1.3c0.7-0.4,1.1-1.3,0.7-2C37.8,34.7,37.4,34.3,37,34.1
		L37,34.1z M28.4,38.2h-13c-1,0-1.9-0.8-2-1.8L12,25.6c0-0.8,0.2-1.6,0.8-2.2s1.3-0.9,2.1-0.9c0.8,0,1.6,0.3,2.1,0.9
		c0.6,0.6,0.9,1.4,0.8,2.2l-0.9,7c-0.1,0.7,0.1,1.4,0.6,2c0.4,0.5,1,0.8,1.7,0.9c0.1,0,0.2,0,0.3,0h8.9V38.2L28.4,38.2L28.4,38.2z"
		/>
	<path class="st0" d="M28.6,49.5h-0.2v-5.3c0-1.6-1.2-2.9-2.8-2.9H9L8.1,26c-0.1-1.7,0.5-3.4,1.7-4.6c1.1-1.1,3-1.9,4.8-1.9
		c1.8,0,3.7,0.8,4.8,1.9c1.2,1.3,1.8,2.9,1.7,4.6l-0.3,6c0,0.4,0.3,0.8,0.7,0.8c0.4,0,0.8-0.3,0.8-0.7l0.3-6
		c0.1-2.1-0.6-4.1-2.1-5.7c-1.1-1.2-3-2.1-4.8-2.3v-3.3h6.1c0.4,0,0.8-0.3,0.8-0.8V2.2c0-0.4-0.3-0.8-0.8-0.8h-7.1
		c-0.1,0-0.2,0-0.3,0c-3.5,0.1-6.2,3.1-6.2,6.6c0,3.5,2.6,6.4,6,6.6v3.2c-2.1,0.1-4.2,1.1-5.4,2.4c-1.4,1.5-2.2,3.6-2.1,5.7
		l0.8,15.3H7.1c-1.5,0-2.8,1.3-2.8,2.9v5.3c-1.7,0.2-3,1.6-3,3.2c0,1.8,1.5,3.2,3.3,3.2h23.9c1.8,0,3.3-1.5,3.3-3.2
		C31.9,50.9,30.5,49.5,28.6,49.5L28.6,49.5z M9.7,8.1c0-2.8,2.2-5.2,5-5.2c0.1,0,0.2,0,0.2,0H21v10.3h-6.4C11.9,13.3,9.7,11,9.7,8.1
		L9.7,8.1z M7.1,42.8h1.1c0,0,0,0,0,0h12.6c0,0,0,0,0,0h4.8c0.7,0,1.2,0.6,1.2,1.4v5.3H5.9v-5.3C5.9,43.4,6.5,42.8,7.1,42.8
		L7.1,42.8z M28.6,54.5H4.7c-1,0-1.8-0.8-1.8-1.8c0-1,0.8-1.8,1.8-1.8h23.9c1,0,1.8,0.8,1.8,1.8C30.4,53.7,29.6,54.5,28.6,54.5
		L28.6,54.5z"/>
</g>
</svg>
