<?xml version="1.0" encoding="utf-8"?>
<!-- Generator: Adobe Illustrator 24.0.0, SVG Export Plug-In . SVG Version: 6.00 Build 0)  -->
<svg version="1.1" id="Layer_1" xmlns="http://www.w3.org/2000/svg" xmlns:xlink="http://www.w3.org/1999/xlink" x="0px" y="0px"
	 viewBox="0 0 56 57" xml:space="preserve">
<g>
	<path class="st0" d="M26.5,17c0-2.4-0.9-4.6-2.6-6.3c0,0,0,0,0,0c-3.5-3.4-9.2-3.4-12.7,0c-1.7,1.7-2.6,3.9-2.6,6.3
		c0,2.4,0.9,4.6,2.6,6.3c1.8,1.7,4.1,2.6,6.4,2.6c2.3,0,4.6-0.9,6.4-2.6C25.6,21.6,26.5,19.4,26.5,17L26.5,17z M12.2,22.3
		C10.7,20.9,10,19,10,17c0-2,0.8-3.9,2.2-5.3c1.5-1.4,3.4-2.2,5.3-2.2c1.9,0,3.9,0.7,5.3,2.2c0,0,0,0,0,0c1.4,1.4,2.2,3.3,2.2,5.2
		c0,2-0.8,3.9-2.2,5.3C19.9,25.2,15.1,25.2,12.2,22.3L12.2,22.3z"/>
	<path class="st0" d="M17.8,13.6L17.8,13.6c-0.9,0-1.8,0.3-2.4,1c-1.2,1.3-1.2,3.4,0,4.7c0.6,0.6,1.5,1,2.4,1c0.9,0,1.8-0.3,2.4-1
		c1.2-1.3,1.2-3.4,0-4.7C19.5,14,18.7,13.6,17.8,13.6L17.8,13.6z M19.1,18.4c-0.7,0.7-1.9,0.7-2.6,0c-0.8-0.8-0.8-2.1,0-2.9
		c0.3-0.4,0.8-0.6,1.3-0.6l0,0c0.5,0,0.9,0.2,1.3,0.6C19.8,16.3,19.8,17.6,19.1,18.4L19.1,18.4z"/>
	<path class="st0" d="M14.7,7.3c0.6,0,1.1-0.5,1.1-1.1c0-0.6-0.5-1.1-1.1-1.1c-0.6,0-1.1,0.5-1.1,1.1C13.6,6.8,14.1,7.3,14.7,7.3
		L14.7,7.3z M14.7,5.9C14.9,5.9,15,6,15,6.2c0,0.2-0.1,0.3-0.3,0.3c-0.2,0-0.3-0.1-0.3-0.3C14.4,6,14.5,5.9,14.7,5.9L14.7,5.9z"/>
	<path class="st0" d="M17.8,7.3c0.6,0,1.1-0.5,1.1-1.1c0,0,0,0,0,0c0-0.6-0.5-1.1-1.1-1.1c-0.6,0-1.1,0.5-1.1,1.1
		C16.7,6.8,17.2,7.3,17.8,7.3L17.8,7.3z M17.8,5.9c0.2,0,0.3,0.1,0.3,0.3h-0.6C17.5,6,17.7,5.9,17.8,5.9L17.8,5.9z M18.1,6.2
		c0,0.2-0.1,0.3-0.3,0.3c-0.2,0-0.3-0.1-0.3-0.3H18.1L18.1,6.2L18.1,6.2z"/>
	<path class="st0" d="M21.2,7.3c0.7,0,1.2-0.5,1.2-1.1l0,0c0-0.6-0.5-1.1-1.2-1.1c-0.7,0-1.2,0.5-1.2,1.1C20,6.8,20.5,7.3,21.2,7.3
		L21.2,7.3z M21.2,5.9c0.2,0,0.3,0.1,0.3,0.3c0,0.2-0.1,0.3-0.3,0.3c-0.2,0-0.3-0.1-0.3-0.3C20.9,6,21,5.9,21.2,5.9L21.2,5.9z"/>
	<path class="st0" d="M26.4,37.7c0-0.4-0.3-0.7-0.7-0.7h-3.5v-4.4c6.5-2,11.3-8.2,11.3-15.5c0-8.9-7.1-16.2-15.8-16.2
		S1.9,8.2,1.9,17.1c0,7.2,4.6,13.3,10.9,15.4V37H8.2C4.8,37,2,39.8,2,43.3v10.3c0,0.4,0.3,0.7,0.7,0.7c0.4,0,0.7-0.3,0.7-0.7V43.3
		c0-2.7,2.1-4.9,4.7-4.9h17.5C26.1,38.4,26.4,38.1,26.4,37.7L26.4,37.7z M3.4,17.1C3.4,9,9.8,2.4,17.8,2.4c7.9,0,14.4,6.6,14.4,14.7
		s-6.5,14.7-14.4,14.7C9.8,31.8,3.4,25.2,3.4,17.1L3.4,17.1z M17.8,33.3c1,0,2.1-0.1,3.1-0.3v4h-6.5v-4.1
		C15.4,33.1,16.6,33.3,17.8,33.3L17.8,33.3z"/>
	<path class="st0" d="M53.3,31.9h-3.9v-7.4c1-0.3,1.7-1.2,1.7-2.3c0-1.3-1.1-2.4-2.4-2.4c-1.3,0-2.4,1.1-2.4,2.4
		c0,1.1,0.7,2,1.7,2.3v7.4h-4v-7.4c1-0.3,1.8-1.2,1.8-2.3c0-1.3-1.1-2.4-2.4-2.4c-1.4,0-2.4,1.1-2.4,2.4c0,1.1,0.7,2,1.7,2.3v7.4
		h-4.3v-7.4c1-0.3,1.8-1.2,1.8-2.3c0-1.3-1.1-2.4-2.4-2.4s-2.4,1.1-2.4,2.4c0,1.1,0.7,2,1.7,2.3v7.4h-4.3c-0.4,0-0.7,0.3-0.7,0.7
		v9.7h-7.4c-0.2-1.2-1.2-2-2.4-2c-1.4,0-2.4,1.1-2.4,2.4c0,1.3,1.1,2.4,2.4,2.4c1,0,1.8-0.6,2.2-1.4h7.6v4.3h-7.4
		c-0.2-1.2-1.2-2-2.4-2c-1.4,0-2.4,1.1-2.4,2.4s1.1,2.4,2.4,2.4c1,0,1.8-0.6,2.2-1.4h7.6v3.8c0,0.4,0.3,0.7,0.7,0.7h20.8
		c0.4,0,0.7-0.3,0.7-0.7V32.7C54,32.3,53.7,31.9,53.3,31.9L53.3,31.9z M48.7,21.3c0.6,0,1,0.4,1,1c0,0.6-0.5,1-1,1c-0.6,0-1-0.5-1-1
		C47.7,21.7,48.2,21.3,48.7,21.3L48.7,21.3z M43.3,21.3c0.6,0,1,0.4,1,1c0,0.6-0.5,1-1,1c-0.6,0-1-0.5-1-1
		C42.3,21.7,42.7,21.3,43.3,21.3L43.3,21.3z M37.5,21.3c0.6,0,1,0.4,1,1c0,0.6-0.5,1-1,1c-0.6,0-1-0.5-1-1
		C36.5,21.7,36.9,21.3,37.5,21.3L37.5,21.3z M21.9,43.8c-0.6,0-1-0.5-1-1c0-0.6,0.5-1,1-1c0.6,0,1,0.4,1,1
		C22.9,43.4,22.5,43.8,21.9,43.8L21.9,43.8z M21.9,49.6c-0.6,0-1-0.4-1-1c0-0.6,0.5-1,1-1c0.6,0,1,0.5,1,1
		C22.9,49.1,22.5,49.6,21.9,49.6L21.9,49.6z M52.6,52.7H33.2V33.4h19.4V52.7L52.6,52.7L52.6,52.7z"/>
	<path class="st0" d="M49.6,36.2H41l-5,5v8.5h13.6V36.2L49.6,36.2L49.6,36.2z M48.1,48.3H37.4v-6.5l4.2-4.2h6.5V48.3L48.1,48.3
		L48.1,48.3z"/>
</g>
</svg>
