<?xml version="1.0" encoding="UTF-8"?>
<svg width="20px" height="17px" viewBox="0 0 20 17" version="1.1" xmlns="http://www.w3.org/2000/svg" xmlns:xlink="http://www.w3.org/1999/xlink">
    <!-- Generator: Sketch 44.1 (41455) - http://www.bohemiancoding.com/sketch -->
    <title>slice</title>
    <desc>Created with Sketch.</desc>
    <defs></defs>
    <g id="Page-1" stroke="none" stroke-width="1">
        <g id="Artboard" transform="translate(-29.000000, -29.000000)" fill-rule="nonzero">
            <g id="noun_SEO-Benchmark_1127925" transform="translate(30.000000, 30.000000)">
                <g id="Group">
                    <g id="Shape">
                        <path d="M16.3812579,2.5645153 L12.8135937,6.18388487 C12.8419989,6.29164135 12.8571429,6.40489611 12.8571429,6.52173913 C12.8571429,7.24211054 12.281509,7.82608696 11.5714286,7.82608696 C10.8613482,7.82608696 10.2857143,7.24211054 10.2857143,6.52173913 C10.2857143,6.5064587 10.2859733,6.4912397 10.2864871,6.4760863 L7.03232042,4.41275596 C6.85230396,4.51006702 6.6467862,4.56521739 6.42857143,4.56521739 C6.31339759,4.56521739 6.20176076,4.54985393 6.09554366,4.52103704 L2.52787935,8.14040661 C2.55628462,8.24816309 2.57142857,8.36141785 2.57142857,8.47826087 C2.57142857,9.19863228 1.99579468,9.7826087 1.28571429,9.7826087 C0.575633893,9.7826087 0,9.19863228 0,8.47826087 C0,7.75788946 0.575633893,7.17391304 1.28571429,7.17391304 C1.40088814,7.17391304 1.51252494,7.1892765 1.61874206,7.21809339 L5.18640634,3.59872383 C5.15800112,3.49096735 5.14285714,3.37771259 5.14285714,3.26086957 C5.14285714,2.54049815 5.71849104,1.95652174 6.42857143,1.95652174 C7.13865182,1.95652174 7.71428571,2.54049815 7.71428571,3.26086957 C7.71428571,3.27615 7.71402671,3.291369 7.71351294,3.30652239 L10.9676796,5.36985274 C11.147696,5.27254167 11.3532138,5.2173913 11.5714286,5.2173913 C11.6866024,5.2173913 11.7982392,5.23275476 11.9044563,5.26157165 L15.4721206,1.64220209 C15.4437154,1.53444559 15.4285714,1.42119087 15.4285714,1.30434783 C15.4285714,0.583976413 16.0042053,0 16.7142857,0 C17.4243661,0 18,0.583976413 18,1.30434783 C18,2.02471924 17.4243661,2.60869565 16.7142857,2.60869565 C16.5991119,2.60869565 16.487475,2.5933322 16.3812579,2.5645153 Z M1.28571429,11.7391304 L1.28571429,11.7391304 C1.64075448,11.7391304 1.92857143,12.0311187 1.92857143,12.3913043 L1.92857143,14.3478261 C1.92857143,14.7080118 1.64075448,15 1.28571429,15 C0.930674089,15 0.642857143,14.7080118 0.642857143,14.3478261 L0.642857143,12.3913043 C0.642857143,12.0311187 0.930674089,11.7391304 1.28571429,11.7391304 L1.28571429,11.7391304 Z M11.5714286,9.7826087 C11.9264687,9.7826087 12.2142857,10.0745969 12.2142857,10.4347826 L12.2142857,14.3478261 C12.2142857,14.7080118 11.9264687,15 11.5714286,15 C11.2163884,15 10.9285714,14.7080118 10.9285714,14.3478261 L10.9285714,10.4347826 C10.9285714,10.0745969 11.2163884,9.7826087 11.5714286,9.7826087 Z M16.7142857,4.56521739 C17.0693259,4.56521739 17.3571429,4.85720563 17.3571429,5.2173913 L17.3571429,14.3478261 C17.3571429,14.7080118 17.0693259,15 16.7142857,15 C16.3592456,15 16.0714286,14.7080118 16.0714286,14.3478261 L16.0714286,5.2173913 C16.0714286,4.85720563 16.3592456,4.56521739 16.7142857,4.56521739 Z M6.42857143,6.52173913 C6.78361159,6.52173913 7.07142857,6.81372737 7.07142857,7.17391304 L7.07142857,14.3478261 L7.07142857,14.3478261 C7.07142857,14.7080118 6.78361159,15 6.42857143,15 C6.07353126,15 5.78571429,14.7080118 5.78571429,14.3478261 L5.78571429,7.17391304 C5.78571429,6.81372737 6.07353126,6.52173913 6.42857143,6.52173913 Z"></path>
                    </g>
                </g>
            </g>
        </g>
    </g>
</svg>