<?xml version="1.0" encoding="utf-8"?>
<svg version="1.1" xmlns:xlink="http://www.w3.org/1999/xlink" width="16px" height="16px" xmlns="http://www.w3.org/2000/svg">
  <g>
    <path d="M 16 8  C 16 12.418278  12.418278 16  8 16  C 3.581722 16  0 12.418278  0 8  C 0 3.581722  3.581722 0  8 0  C 12.418278 0  16 3.581722  16 8  Z M 7.2 4.796318056  L 7.2 7.2  L 4.796318056 7.2  C 4.36453152 7.2  4 7.5581722  4 8  C 4 8.44490816  4.356523736 8.8  4.796318056 8.8  L 7.2 8.8  L 7.2 11.20368192  C 7.2 11.63546848  7.5581722 12  8 12  C 8.44490816 12  8.8 11.64347624  8.8 11.20368192  L 8.8 8.8  L 11.20368192 8.8  C 11.63546848 8.8  12 8.44182776  12 8  C 12 7.555091856  11.64347624 7.2  11.20368192 7.2  L 8.8 7.2  L 8.8 4.796318056  C 8.8 4.36453152  8.44182776 4  8 4  C 7.555091856 4  7.2 4.356523736  7.2 4.796318056  Z " fill-rule="nonzero" fill="#939495" stroke="none" />
  </g>
</svg>