<?xml version="1.0" encoding="UTF-8"?>
<svg width="6px" height="10px" viewBox="0 0 6 10" version="1.1" xmlns="http://www.w3.org/2000/svg" xmlns:xlink="http://www.w3.org/1999/xlink">
    <g id="Page-1" stroke="none" stroke-width="1" fill="none" fill-rule="evenodd" fill-opacity="0.54">
        <g id="Artboard" transform="translate(-205.000000, -136.000000)" fill-rule="nonzero" fill="#000000">
            <g id="arrow-right-white" transform="translate(208.000000, 141.000000) scale(-1, 1) translate(-208.000000, -141.000000) translate(206.000000, 137.000000)">
                <path d="M0.1,0.114285714 C0.2,0 0.3,0 0.4,0 C0.5,0 0.6,0 0.7,0.114285714 L3.9,3.65714286 C4,3.77142857 4,3.88571429 4,4 C4,4.11428571 4,4.22857143 3.9,4.34285714 L0.8,7.88571429 C0.7,8 0.6,8 0.4,8 C0.2,8 0.2,8 0.1,7.88571429 C2.22044605e-16,7.77142857 0,7.65714286 0,7.54285714 L0,0.571428571 C0,0.342857143 0,0.228571429 0.1,0.114285714 Z" id="Shape"></path>
            </g>
        </g>
    </g>
</svg>