<?xml version="1.0" encoding="utf-8"?>
<svg version="1.1" xmlns:xlink="http://www.w3.org/1999/xlink" width="10px" height="10px" xmlns="http://www.w3.org/2000/svg">
  <g>
    <path d="M 9.63095238095238 2.13095238095238  C 10.1190476190476 1.64285714285714  10.1190476190476 0.857142857142857  9.63095238095238 0.369047619047619  C 9.14285714285714 -0.119047619047619  8.35714285714286 -0.119047619047619  7.86904761904762 0.369047619047619  L 5 3.23809523809524  L 2.13095238095238 0.369047619047619  C 1.64285714285714 -0.119047619047619  0.857142857142857 -0.119047619047619  0.369047619047619 0.369047619047619  C -0.119047619047619 0.857142857142857  -0.119047619047619 1.64285714285714  0.369047619047619 2.13095238095238  L 3.23809523809524 5  L 0.369047619047619 7.86904761904762  C -0.119047619047619 8.35714285714286  -0.119047619047619 9.14285714285714  0.369047619047619 9.63095238095238  C 0.619047619047619 9.88095238095238  0.928571428571429 10  1.25 10  C 1.57142857142857 10  1.89285714285714 9.88095238095238  2.13095238095238 9.63095238095238  L 5 6.76190476190476  L 7.86904761904762 9.63095238095238  C 8.11904761904762 9.88095238095238  8.42857142857143 10  8.75 10  C 9.07142857142857 10  9.39285714285714 9.88095238095238  9.63095238095238 9.63095238095238  C 10.1190476190476 9.14285714285714  10.1190476190476 8.35714285714286  9.63095238095238 7.86904761904762  L 6.76190476190476 5  L 9.63095238095238 2.13095238095238  Z " fill-rule="nonzero" fill="#aaaaaa" stroke="none" />
  </g>
</svg>