<?xml version="1.0" encoding="utf-8"?>
<!-- Generator: Adobe Illustrator 24.1.2, SVG Export Plug-In . SVG Version: 6.00 Build 0)  -->
<svg version="1.1" id="图层_1" xmlns="http://www.w3.org/2000/svg" xmlns:xlink="http://www.w3.org/1999/xlink" x="0px" y="0px"
	 viewBox="0 0 14.9 14" style="enable-background:new 0 0 14.9 14;" xml:space="preserve">
<style type="text/css">
	.st0{fill:#FFFFFF;}
</style>
<g>
	<path class="st0" d="M9.1,9.6c-0.4,0-0.6,0.3-0.6,0.6v2.5H1.3V1.3h7.2v2.6c0,0.4,0.3,0.6,0.6,0.6c0.4,0,0.6-0.3,0.6-0.6V0.6
		C9.8,0.3,9.5,0,9.1,0H0.6C0.3,0,0,0.3,0,0.6v12.7C0,13.7,0.3,14,0.6,14h8.5c0.4,0,0.6-0.3,0.6-0.6v-3.2C9.8,9.8,9.5,9.6,9.1,9.6z"
		/>
	<path class="st0" d="M14.9,7L14.9,7c0-0.1,0-0.1,0-0.2c0,0,0,0,0-0.1l-0.1-0.1l0,0l-3-3c-0.2-0.2-0.7-0.2-0.9,0s-0.2,0.7,0,0.9
		l1.9,1.9h-7C5.3,6.4,5.1,6.7,5.1,7c0,0.4,0.3,0.6,0.6,0.6h7l-1.9,1.9c-0.2,0.2-0.2,0.7,0,0.9c0.1,0.1,0.3,0.2,0.5,0.2
		s0.3-0.1,0.5-0.2l3-3c0.1-0.1,0.1-0.1,0.1-0.2l0,0C14.8,7.2,14.9,7.1,14.9,7L14.9,7z"/>
</g>
</svg>
