<?xml version="1.0" encoding="UTF-8"?>
<svg width="18px" height="18px" viewBox="0 0 18 18" version="1.1" xmlns="http://www.w3.org/2000/svg" xmlns:xlink="http://www.w3.org/1999/xlink">
    <g id="Page-1" stroke="none" stroke-width="1" fill="none" fill-rule="evenodd">
        <g id="Artboard" transform="translate(-29.000000, -29.000000)" fill-rule="nonzero" fill="#FFFFFF">
            <g id="noun_export_1406983" transform="translate(30.000000, 30.000000)">
                <g id="Group">
                    <path d="M15.8243902,0.592592593 L15.8243902,0.454320988 L15.7853659,0.375308642 L15.7463415,0.316049383 L15.6487805,0.197530864 L15.6292683,0.197530864 L15.5121951,0.0987654321 L15.4536585,0.0592592593 L15.3756098,0.0197530864 L10.5560976,0.0197530864 C10.125046,0.0197530864 9.77560976,0.373503408 9.77560976,0.809876543 C9.77560976,1.24624968 10.125046,1.6 10.5560976,1.6 L13.1707317,1.6 L4.37073171,10.4493827 C4.17205717,10.65051 4.09446592,10.9436594 4.16718584,11.2184044 C4.23990576,11.4931494 4.45188896,11.7077497 4.72328342,11.7813674 C4.99467788,11.8549851 5.28425231,11.776436 5.48292683,11.5753086 L14.2829268,2.66666667 L14.2829268,5.31358025 C14.2829268,5.74995338 14.6323631,6.1037037 15.0634146,6.1037037 C15.4944661,6.1037037 15.8439024,5.74995338 15.8439024,5.31358025 L15.8439024,0.77037037 C15.8440666,0.71055445 15.8375206,0.650913109 15.8243902,0.592592593 L15.8243902,0.592592593 Z" id="Shape"></path>
                    <path d="M2.49756098,15.8419753 L10.4585366,15.8419753 C11.7516911,15.8419753 12.8,14.7807243 12.8,13.4716049 L12.8,9.69876543 C12.8,9.2623923 12.4505637,8.90864198 12.0195122,8.90864198 C11.5884607,8.90864198 11.2390244,9.2623923 11.2390244,9.69876543 L11.2390244,13.4716049 C11.2390244,13.9079781 10.8895881,14.2617284 10.4585366,14.2617284 L2.49756098,14.2617284 C2.06650946,14.2617284 1.71707317,13.9079781 1.71707317,13.4716049 L1.71707317,5.41234568 C1.71707317,4.97597254 2.06650946,4.62222222 2.49756098,4.62222222 L6.22439024,4.62222222 C6.65544176,4.62222222 7.00487805,4.2684719 7.00487805,3.83209877 C7.00487805,3.39572563 6.65544176,3.04197531 6.22439024,3.04197531 L2.49756098,3.04197531 C1.20440644,3.04197531 0.156097561,4.10322627 0.156097561,5.41234568 L0.156097561,13.4716049 C0.156097561,14.7807243 1.20440644,15.8419753 2.49756098,15.8419753 Z" id="Shape"></path>
                </g>
            </g>
        </g>
    </g>
</svg>