<?xml version="1.0" encoding="utf-8"?>
<svg version="1.1" xmlns:xlink="http://www.w3.org/1999/xlink" width="18px" height="18px" xmlns="http://www.w3.org/2000/svg">
  <g>
    <path d="M 10.20703125 12.29296875  C 10.27734375 12.36328125  10.3125 12.453125  10.3125 12.5625  L 10.3125 14.4375  C 10.3125 14.546875  10.27734375 14.63671875  10.20703125 14.70703125  C 10.13671875 14.77734375  10.046875 14.8125  9.9375 14.8125  L 8.0625 14.8125  C 7.953125 14.8125  7.86328125 14.77734375  7.79296875 14.70703125  C 7.72265625 14.63671875  7.6875 14.546875  7.6875 14.4375  L 7.6875 12.5625  C 7.6875 12.453125  7.72265625 12.36328125  7.79296875 12.29296875  C 7.86328125 12.22265625  7.953125 12.1875  8.0625 12.1875  L 9.9375 12.1875  C 10.046875 12.1875  10.13671875 12.22265625  10.20703125 12.29296875  Z M 12.029296875 4.236328125  C 12.884765625 4.935546875  13.3125 5.7734375  13.3125 6.75  C 13.3125 7.140625  13.25390625 7.4921875  13.13671875 7.8046875  C 13.01953125 8.1171875  12.841796875 8.38671875  12.603515625 8.61328125  C 12.365234375 8.83984375  12.162109375 9.01171875  11.994140625 9.12890625  C 11.826171875 9.24609375  11.59375 9.38671875  11.296875 9.55078125  C 11.046875 9.69140625  10.865234375 9.80078125  10.751953125 9.87890625  C 10.638671875 9.95703125  10.537109375 10.05078125  10.447265625 10.16015625  C 10.357421875 10.26953125  10.3125 10.3828125  10.3125 10.5  L 10.3125 10.875  C 10.3125 10.984375  10.27734375 11.07421875  10.20703125 11.14453125  C 10.13671875 11.21484375  10.046875 11.25  9.9375 11.25  L 8.0625 11.25  C 7.953125 11.25  7.86328125 11.21484375  7.79296875 11.14453125  C 7.72265625 11.07421875  7.6875 10.984375  7.6875 10.875  L 7.6875 10.078125  C 7.6875 9.8046875  7.728515625 9.552734375  7.810546875 9.322265625  C 7.892578125 9.091796875  7.986328125 8.90625  8.091796875 8.765625  C 8.197265625 8.625  8.349609375 8.486328125  8.548828125 8.349609375  C 8.748046875 8.212890625  8.908203125 8.11328125  9.029296875 8.05078125  C 9.150390625 7.98828125  9.32421875 7.90625  9.55078125 7.8046875  C 9.96484375 7.609375  10.2578125 7.44140625  10.4296875 7.30078125  C 10.6015625 7.16015625  10.6875 6.96875  10.6875 6.7265625  C 10.6875 6.3984375  10.517578125 6.119140625  10.177734375 5.888671875  C 9.837890625 5.658203125  9.46484375 5.54296875  9.05859375 5.54296875  C 8.62109375 5.54296875  8.25 5.6484375  7.9453125 5.859375  C 7.71875 6.015625  7.40625 6.33984375  7.0078125 6.83203125  C 6.9375 6.92578125  6.83984375 6.97265625  6.71484375 6.97265625  C 6.62890625 6.97265625  6.5546875 6.94921875  6.4921875 6.90234375  L 5.2265625 5.94140625  C 5.1484375 5.88671875  5.1015625 5.80859375  5.0859375 5.70703125  C 5.0703125 5.60546875  5.08984375 5.515625  5.14453125 5.4375  C 6.09765625 3.9375  7.4609375 3.1875  9.234375 3.1875  C 10.2421875 3.1875  11.173828125 3.537109375  12.029296875 4.236328125  Z M 11.912109375 2.09765625  C 10.986328125 1.69921875  10.015625 1.5  9 1.5  C 7.984375 1.5  7.013671875 1.69921875  6.087890625 2.09765625  C 5.162109375 2.49609375  4.365234375 3.029296875  3.697265625 3.697265625  C 3.029296875 4.365234375  2.49609375 5.162109375  2.09765625 6.087890625  C 1.69921875 7.013671875  1.5 7.984375  1.5 9  C 1.5 10.015625  1.69921875 10.986328125  2.09765625 11.912109375  C 2.49609375 12.837890625  3.029296875 13.634765625  3.697265625 14.302734375  C 4.365234375 14.970703125  5.162109375 15.50390625  6.087890625 15.90234375  C 7.013671875 16.30078125  7.984375 16.5  9 16.5  C 10.015625 16.5  10.986328125 16.30078125  11.912109375 15.90234375  C 12.837890625 15.50390625  13.634765625 14.970703125  14.302734375 14.302734375  C 14.970703125 13.634765625  15.50390625 12.837890625  15.90234375 11.912109375  C 16.30078125 10.986328125  16.5 10.015625  16.5 9  C 16.5 7.984375  16.30078125 7.013671875  15.90234375 6.087890625  C 15.50390625 5.162109375  14.970703125 4.365234375  14.302734375 3.697265625  C 13.634765625 3.029296875  12.837890625 2.49609375  11.912109375 2.09765625  Z M 16.79296875 4.482421875  C 17.59765625 5.861328125  18 7.3671875  18 9  C 18 10.6328125  17.59765625 12.138671875  16.79296875 13.517578125  C 15.98828125 14.896484375  14.896484375 15.98828125  13.517578125 16.79296875  C 12.138671875 17.59765625  10.6328125 18  9 18  C 7.3671875 18  5.861328125 17.59765625  4.482421875 16.79296875  C 3.103515625 15.98828125  2.01171875 14.896484375  1.20703125 13.517578125  C 0.40234375 12.138671875  0 10.6328125  0 9  C 0 7.3671875  0.40234375 5.861328125  1.20703125 4.482421875  C 2.01171875 3.103515625  3.103515625 2.01171875  4.482421875 1.20703125  C 5.861328125 0.402343749999998  7.3671875 0  9 0  C 10.6328125 0  12.138671875 0.402343749999998  13.517578125 1.20703125  C 14.896484375 2.01171875  15.98828125 3.103515625  16.79296875 4.482421875  Z " fill-rule="nonzero" fill="#ffffff" stroke="none" />
  </g>
</svg>