<?xml version="1.0" encoding="UTF-8"?>
<svg width="18px" height="18px" viewBox="0 0 18 18" version="1.1" xmlns="http://www.w3.org/2000/svg" xmlns:xlink="http://www.w3.org/1999/xlink">
    <!-- Generator: Sketch 44.1 (41455) - http://www.bohemiancoding.com/sketch -->
    <title>slice</title>
    <desc>Created with Sketch.</desc>
    <defs></defs>
    <g id="Page-1" stroke="none" stroke-width="1" fill="none" fill-rule="evenodd">
        <g id="Artboard" transform="translate(-29.000000, -29.000000)" fill-rule="nonzero">
            <g id="help-center-dark" transform="translate(30.000000, 30.000000)">
                <circle id="Oval" cx="8" cy="4.8" r="1.14285714"></circle>
                <path d="M8.91428571,7.77142857 L8.91428571,11.4285714 C8.91428571,11.8857143 8.45714286,12.3428571 8,12.3428571 C7.54285714,12.3428571 7.08571429,11.8857143 7.08571429,11.4285714 L7.08571429,7.77142857 C7.08571429,7.31428571 7.42857143,6.85714286 8,6.85714286 C8.45714286,6.85714286 8.91428571,7.31428571 8.91428571,7.77142857 Z" id="Shape"></path>
                <path d="M8,0 C3.54285714,0 0,3.54285714 0,8 C0,12.4571429 3.54285714,16 8,16 C12.4571429,16 16,12.4571429 16,8 C16,3.54285714 12.4571429,0 8,0 Z M12.6857143,12.6857143 C10.1714286,15.3142857 5.94285714,15.3142857 3.42857143,12.8 C0.914285714,10.2857143 0.685714286,6.05714286 3.2,3.42857143 C3.2,3.42857143 3.2,3.42857143 3.31428571,3.31428571 C5.82857143,0.685714286 10.0571429,0.685714286 12.5714286,3.2 C15.0857143,5.71428571 15.3142857,9.94285714 12.6857143,12.6857143 C12.6857143,12.5714286 12.6857143,12.5714286 12.6857143,12.6857143 Z" id="Shape"></path>
                <path d="M8,0 C3.54285714,0 0,3.54285714 0,8 C0,12.4571429 3.54285714,16 8,16 C12.4571429,16 16,12.4571429 16,8 C16,3.54285714 12.4571429,0 8,0 Z M12.6857143,12.6857143 C10.1714286,15.3142857 5.94285714,15.3142857 3.42857143,12.8 C0.914285714,10.2857143 0.685714286,6.05714286 3.2,3.42857143 C3.2,3.42857143 3.2,3.42857143 3.31428571,3.31428571 C5.82857143,0.685714286 10.0571429,0.685714286 12.5714286,3.2 C15.0857143,5.71428571 15.3142857,9.94285714 12.6857143,12.6857143 C12.6857143,12.5714286 12.6857143,12.5714286 12.6857143,12.6857143 Z" id="Shape"></path>
            </g>
        </g>
    </g>
</svg>