<?xml version="1.0" encoding="UTF-8"?>
<svg width="18px" height="18px" viewBox="0 0 18 18" version="1.1" xmlns="http://www.w3.org/2000/svg" xmlns:xlink="http://www.w3.org/1999/xlink">
    <!-- Generator: Sketch 44.1 (41455) - http://www.bohemiancoding.com/sketch -->
    <title>slice</title>
    <desc>Created with Sketch.</desc>
    <defs></defs>
    <g id="Page-1" stroke="none" stroke-width="1" fill="none" fill-rule="evenodd">
        <g id="Artboard" transform="translate(-29.000000, -29.000000)">
            <path d="M38,46 C33.581722,46 30,42.418278 30,38 C30,33.581722 33.581722,30 38,30 C42.418278,30 46,33.581722 46,38 C46,42.418278 42.418278,46 38,46 Z M38,45 C41.8659932,45 45,41.8659932 45,38 C45,34.1340068 41.8659932,31 38,31 C34.1340068,31 31,34.1340068 31,38 C31,41.8659932 34.1340068,45 38,45 Z M38,36 C37.4477153,36 37,35.5522847 37,35 C37,34.4477153 37.4477153,34 38,34 C38.5522847,34 39,34.4477153 39,35 C39,35.5522847 38.5522847,36 38,36 Z M38,37 C38.5522847,37 39,37.4477153 39,38 L39,41 C39,41.5522847 38.5522847,42 38,42 C37.4477153,42 37,41.5522847 37,41 L37,38 C37,37.4477153 37.4477153,37 38,37 Z" id="help"></path>
        </g>
    </g>
</svg>