<?xml version="1.0" encoding="UTF-8"?>
<svg width="17px" height="12px" viewBox="0 0 17 12" version="1.1" xmlns="http://www.w3.org/2000/svg" xmlns:xlink="http://www.w3.org/1999/xlink">
    <!-- Generator: Sketch 44.1 (41455) - http://www.bohemiancoding.com/sketch -->
    <title>slice</title>
    <desc>Created with Sketch.</desc>
    <defs></defs>
    <g id="Page-1" stroke="none" stroke-width="1" fill="none" fill-rule="evenodd">
        <g id="Artboard" transform="translate(-29.000000, -29.000000)" fill-rule="nonzero">
            <g id="noun_Volume_2387772" transform="translate(30.000000, 30.000000)">
                <g id="Group">
                    <path d="M2.524,8.69565217 L0.476,8.69565217 C0.2135,8.69565217 0,8.88130435 0,9.10956522 L0,9.58608696 C0,9.81434783 0.2135,10 0.476,10 L2.524,10 C2.7865,10 3,9.81434783 3,9.58608696 L3,9.10956522 C3,8.88130435 2.7865,8.69565217 2.524,8.69565217 Z" id="Shape"></path>
                    <path d="M6.524,8.69565217 L4.476,8.69565217 C4.2135,8.69565217 4,8.88130435 4,9.10956522 L4,9.58608696 C4,9.81434783 4.2135,10 4.476,10 L6.524,10 C6.7865,10 7,9.81434783 7,9.58608696 L7,9.10956522 C7,8.88130435 6.7865,8.69565217 6.524,8.69565217 Z" id="Shape"></path>
                    <path d="M10.524,8.69565217 L8.476,8.69565217 C8.2135,8.69565217 8,8.88130435 8,9.10956522 L8,9.58608696 C8,9.81434783 8.2135,10 8.476,10 L10.524,10 C10.7865,10 11,9.81434783 11,9.58608696 L11,9.10956522 C11,8.88130435 10.7865,8.69565217 10.524,8.69565217 Z" id="Shape"></path>
                    <path d="M14.524,8.69565217 L12.476,8.69565217 C12.2135,8.69565217 12,8.88130435 12,9.10956522 L12,9.58608696 C12,9.81434783 12.2135,10 12.476,10 L14.524,10 C14.7865,10 15,9.81434783 15,9.58608696 L15,9.10956522 C15,8.88130435 14.7865,8.69565217 14.524,8.69565217 Z" id="Shape"></path>
                    <path d="M2.524,6.52173913 L0.476,6.52173913 C0.2135,6.52173913 0,6.7073913 0,6.93565217 L0,7.41217391 C0,7.64043478 0.2135,7.82608696 0.476,7.82608696 L2.524,7.82608696 C2.7865,7.82608696 3,7.64043478 3,7.41217391 L3,6.93565217 C3,6.7073913 2.7865,6.52173913 2.524,6.52173913 Z" id="Shape"></path>
                    <path d="M6.524,6.52173913 L4.476,6.52173913 C4.2135,6.52173913 4,6.7073913 4,6.93565217 L4,7.41217391 C4,7.64043478 4.2135,7.82608696 4.476,7.82608696 L6.524,7.82608696 C6.7865,7.82608696 7,7.64043478 7,7.41217391 L7,6.93565217 C7,6.7073913 6.7865,6.52173913 6.524,6.52173913 Z" id="Shape"></path>
                    <path d="M10.524,6.52173913 L8.476,6.52173913 C8.2135,6.52173913 8,6.7073913 8,6.93565217 L8,7.41217391 C8,7.64043478 8.2135,7.82608696 8.476,7.82608696 L10.524,7.82608696 C10.7865,7.82608696 11,7.64043478 11,7.41217391 L11,6.93565217 C11,6.7073913 10.7865,6.52173913 10.524,6.52173913 Z" id="Shape"></path>
                    <path d="M14.524,6.52173913 L12.476,6.52173913 C12.2135,6.52173913 12,6.7073913 12,6.93565217 L12,7.41217391 C12,7.64043478 12.2135,7.82608696 12.476,7.82608696 L14.524,7.82608696 C14.7865,7.82608696 15,7.64043478 15,7.41217391 L15,6.93565217 C15,6.7073913 14.7865,6.52173913 14.524,6.52173913 Z" id="Shape"></path>
                    <path d="M2.524,4.34782609 L0.476,4.34782609 C0.2135,4.34782609 0,4.53347826 0,4.76173913 L0,5.23826087 C0,5.46652174 0.2135,5.65217391 0.476,5.65217391 L2.524,5.65217391 C2.7865,5.65217391 3,5.46652174 3,5.23826087 L3,4.76173913 C3,4.53347826 2.7865,4.34782609 2.524,4.34782609 Z" id="Shape"></path>
                    <path d="M6.524,4.34782609 L4.476,4.34782609 C4.2135,4.34782609 4,4.53347826 4,4.76173913 L4,5.23826087 C4,5.46652174 4.2135,5.65217391 4.476,5.65217391 L6.524,5.65217391 C6.7865,5.65217391 7,5.46652174 7,5.23826087 L7,4.76173913 C7,4.53347826 6.7865,4.34782609 6.524,4.34782609 Z" id="Shape"></path>
                    <path d="M14.524,4.34782609 L12.476,4.34782609 C12.2135,4.34782609 12,4.53347826 12,4.76173913 L12,5.23826087 C12,5.46652174 12.2135,5.65217391 12.476,5.65217391 L14.524,5.65217391 C14.7865,5.65217391 15,5.46652174 15,5.23826087 L15,4.76173913 C15,4.53347826 14.7865,4.34782609 14.524,4.34782609 Z" id="Shape"></path>
                    <path d="M2.524,2.17391304 L0.476,2.17391304 C0.2135,2.17391304 0,2.35956522 0,2.58782609 L0,3.06434783 C0,3.2926087 0.2135,3.47826087 0.476,3.47826087 L2.524,3.47826087 C2.7865,3.47826087 3,3.2926087 3,3.06434783 L3,2.58782609 C3,2.35956522 2.7865,2.17391304 2.524,2.17391304 Z" id="Shape"></path>
                    <path d="M14.524,2.17391304 L12.476,2.17391304 C12.2135,2.17391304 12,2.35956522 12,2.58782609 L12,3.06434783 C12,3.2926087 12.2135,3.47826087 12.476,3.47826087 L14.524,3.47826087 C14.7865,3.47826087 15,3.2926087 15,3.06434783 L15,2.58782609 C15,2.35956522 14.7865,2.17391304 14.524,2.17391304 Z" id="Shape"></path>
                    <path d="M2.524,0 L0.476,0 C0.2135,0 0,0.185652174 0,0.413913043 L0,0.890434783 C0,1.11869565 0.2135,1.30434783 0.476,1.30434783 L2.524,1.30434783 C2.7865,1.30434783 3,1.11869565 3,0.890434783 L3,0.413913043 C3,0.185652174 2.7865,0 2.524,0 Z" id="Shape"></path>
                </g>
            </g>
        </g>
    </g>
</svg>