<?xml version="1.0" encoding="utf-8"?>
<!-- Generator: Adobe Illustrator 24.1.0, SVG Export Plug-In . SVG Version: 6.00 Build 0)  -->
<svg version="1.1" id="图层_1" xmlns="http://www.w3.org/2000/svg" xmlns:xlink="http://www.w3.org/1999/xlink" x="0px" y="0px"
	 viewBox="0 0 17 24" style="enable-background:new 0 0 17 24;" xml:space="preserve">
<style type="text/css">
	.st0{fill:#FFFFFF;}
</style>
<path class="st0" d="M11.3,4.6c-0.3,0.3-0.8,0.3-1.2,0L9.2,3.7v7.8c0,0.5-0.3,0.8-0.8,0.8S7.6,12,7.6,11.5V3.7L6.7,4.6
	c-0.3,0.3-0.8,0.3-1.2,0s-0.3-0.8,0-1.2l2.3-2.2C7.9,1.1,8.2,1,8.4,1s0.5,0.1,0.7,0.3l2.3,2.2C11.6,3.6,11.6,4.2,11.3,4.6z"/>
<path class="st0" d="M15.8,19.5l-1-3.7c-0.3-1-0.6-1.7-2.1-1.7H11H5.8H4.1c-1.5,0-1.8,0.7-2.1,1.7l-1,3.7c-0.3,2.1,0.9,2.9,2.1,2.9
	h3h4.6h3C14.9,22.5,16.1,21.7,15.8,19.5z M13.7,21.9H3.1c-0.8,0-1.4-0.6-1.4-1.4s0.6-1.4,1.4-1.4h10.5c0.8,0,1.4,0.6,1.4,1.4
	S14.4,21.9,13.7,21.9z"/>
<path class="st0" d="M11.8,20.9c-0.3,0-0.5-0.2-0.5-0.5s0.1-0.5,0.5-0.5c0.3,0,0.5,0.2,0.5,0.5S12.2,20.9,11.8,20.9z"/>
<path class="st0" d="M13.5,20.9c-0.2,0-0.5-0.2-0.5-0.5s0.2-0.5,0.5-0.5s0.5,0.2,0.5,0.5S13.8,20.9,13.5,20.9z"/>
</svg>
